<?xml version="1.0" encoding="UTF-8" standalone="no"?><svg xmlns="http://www.w3.org/2000/svg" xmlns:xlink="http://www.w3.org/1999/xlink" contentScriptType="application/ecmascript" contentStyleType="text/css" height="844px" preserveAspectRatio="none" style="width:1041px;height:844px;" version="1.1" viewBox="0 0 1041 844" width="1041px" zoomAndPan="magnify"><defs><filter height="300%" id="f1v8o2m265slkb" width="300%" x="-1" y="-1"><feGaussianBlur result="blurOut" stdDeviation="2.0"/><feColorMatrix in="blurOut" result="blurOut2" type="matrix" values="0 0 0 0 0 0 0 0 0 0 0 0 0 0 0 0 0 0 .4 0"/><feOffset dx="4.0" dy="4.0" in="blurOut2" result="blurOut3"/><feBlend in="SourceGraphic" in2="blurOut3" mode="normal"/></filter></defs><g><text fill="#000000" font-family="sans-serif" font-size="18" lengthAdjust="spacingAndGlyphs" text-decoration="underline" textLength="277" x="375.5" y="16.708">CONTROLLER's Class Diagram</text><text fill="#000000" font-family="sans-serif" font-size="18" lengthAdjust="spacingAndGlyphs" textLength="0" x="517" y="37.6611"/><!--MD5=[7696743e9eab3d07d0242f740cb8a12e]
cluster hk.edu.polyu.comp.comp2021.cvfs--><polygon fill="#FFFFFF" filter="url(#f1v8o2m265slkb)" points="16,47.9063,301,47.9063,308,70.2031,576,70.2031,576,785.4063,16,785.4063,16,47.9063" style="stroke:#000000;stroke-width:1.5;"/><line style="stroke:#000000;stroke-width:1.5;" x1="16" x2="308" y1="70.2031" y2="70.2031"/><text fill="#000000" font-family="sans-serif" font-size="14" font-weight="bold" lengthAdjust="spacingAndGlyphs" textLength="279" x="20" y="62.9014">hk.edu.polyu.comp.comp2021.cvfs</text><!--MD5=[3233057dfd38e04130fdd0653899dee5]
cluster hk.edu.polyu.comp.comp2021.cvfs.controller--><polygon fill="#FFFFFF" filter="url(#f1v8o2m265slkb)" points="40,90.9063,126,90.9063,133,113.2031,552,113.2031,552,761.4063,40,761.4063,40,90.9063" style="stroke:#000000;stroke-width:1.5;"/><line style="stroke:#000000;stroke-width:1.5;" x1="40" x2="133" y1="113.2031" y2="113.2031"/><text fill="#000000" font-family="sans-serif" font-size="14" font-weight="bold" lengthAdjust="spacingAndGlyphs" textLength="80" x="44" y="105.9014">controller</text><!--MD5=[2d52001ffc905d2795e553564b87a26a]
cluster hk.edu.polyu.comp.comp2021.cvfs.model--><polygon fill="#FFFFFF" filter="url(#f1v8o2m265slkb)" points="600,655.9063,939,655.9063,946,678.2031,949,678.2031,949,754.9063,600,754.9063,600,655.9063" style="stroke:#000000;stroke-width:1.5;"/><line style="stroke:#000000;stroke-width:1.5;" x1="600" x2="946" y1="678.2031" y2="678.2031"/><text fill="#000000" font-family="sans-serif" font-size="14" font-weight="bold" lengthAdjust="spacingAndGlyphs" textLength="333" x="604" y="670.9014">hk.edu.polyu.comp.comp2021.cvfs.model</text><!--MD5=[f4c007498b8e7188fbe01ecea3485a4b]
cluster hk.edu.polyu.comp.comp2021.cvfs.view--><polygon fill="#FFFFFF" filter="url(#f1v8o2m265slkb)" points="688,484.4063,1014,484.4063,1021,506.7031,1024,506.7031,1024,583.4063,688,583.4063,688,484.4063" style="stroke:#000000;stroke-width:1.5;"/><line style="stroke:#000000;stroke-width:1.5;" x1="688" x2="1021" y1="506.7031" y2="506.7031"/><text fill="#000000" font-family="sans-serif" font-size="14" font-weight="bold" lengthAdjust="spacingAndGlyphs" textLength="320" x="692" y="499.4014">hk.edu.polyu.comp.comp2021.cvfs.view</text><!--MD5=[903f62440aff671e6bb973ea06b07fab]
class hk.edu.polyu.comp.comp2021.cvfs.controller.CVFSController--><rect codeLine="5" fill="#FEFECE" filter="url(#f1v8o2m265slkb)" height="124.8281" id="hk.edu.polyu.comp.comp2021.cvfs.controller.CVFSController" style="stroke:#A80036;stroke-width:1.5;" width="156" x="380" y="208.9063"/><ellipse cx="410.3" cy="224.9063" fill="#ADD1B2" rx="11" ry="11" style="stroke:#A80036;stroke-width:1.0;"/><path d="M412.6438,220.5781 C411.7063,220.1406 411.1125,220 410.2375,220 C407.6125,220 405.6125,222.0781 405.6125,224.7969 L405.6125,225.9219 C405.6125,228.5 407.7219,230.3906 410.6125,230.3906 C411.8313,230.3906 412.9875,230.0938 413.7375,229.5469 C414.3156,229.1406 414.6438,228.6875 414.6438,228.2969 C414.6438,227.8438 414.2531,227.4531 413.7844,227.4531 C413.5656,227.4531 413.3625,227.5313 413.175,227.7188 C412.7219,228.2031 412.7219,228.2031 412.5344,228.2969 C412.1125,228.5625 411.425,228.6875 410.6594,228.6875 C408.6125,228.6875 407.3156,227.5938 407.3156,225.8906 L407.3156,224.7969 C407.3156,223.0156 408.5656,221.7031 410.3,221.7031 C410.8781,221.7031 411.4875,221.8594 411.9563,222.1094 C412.4406,222.3906 412.6125,222.6094 412.7063,223.0156 C412.7688,223.4219 412.8,223.5469 412.9406,223.6719 C413.0813,223.8125 413.3156,223.9219 413.5344,223.9219 C413.8,223.9219 414.0656,223.7813 414.2375,223.5625 C414.3469,223.4063 414.3781,223.2188 414.3781,222.7969 L414.3781,221.375 C414.3781,220.9375 414.3625,220.8125 414.2688,220.6563 C414.1125,220.3906 413.8313,220.25 413.5344,220.25 C413.2375,220.25 413.0344,220.3438 412.8156,220.6563 L412.6438,220.5781 Z " fill="#000000"/><text fill="#000000" font-family="sans-serif" font-size="12" lengthAdjust="spacingAndGlyphs" textLength="90" x="427.7" y="229.0605">CVFSController</text><line style="stroke:#A80036;stroke-width:1.5;" x1="381" x2="535" y1="240.9063" y2="240.9063"/><rect fill="none" height="6" style="stroke:#C82930;stroke-width:1.0;" width="6" x="388" y="248.9063"/><text fill="#000000" font-family="sans-serif" font-size="11" lengthAdjust="spacingAndGlyphs" text-decoration="underline" textLength="130" x="400" y="255.1167">numParamError : String</text><rect fill="none" height="6" style="stroke:#C82930;stroke-width:1.0;" width="6" x="388" y="261.7109"/><text fill="#000000" font-family="sans-serif" font-size="11" lengthAdjust="spacingAndGlyphs" textLength="103" x="400" y="267.9214">scanner : Scanner</text><line style="stroke:#A80036;stroke-width:1.5;" x1="381" x2="535" y1="274.5156" y2="274.5156"/><ellipse cx="391" cy="285.5156" fill="#84BE84" rx="3" ry="3" style="stroke:#038048;stroke-width:1.0;"/><text fill="#000000" font-family="sans-serif" font-size="11" lengthAdjust="spacingAndGlyphs" textLength="93" x="400" y="288.7261">CVFSController()</text><ellipse cx="391" cy="298.3203" fill="#84BE84" rx="3" ry="3" style="stroke:#038048;stroke-width:1.0;"/><text fill="#000000" font-family="sans-serif" font-size="11" lengthAdjust="spacingAndGlyphs" textLength="85" x="400" y="301.5308">getCommand()</text><ellipse cx="391" cy="311.125" fill="#84BE84" rx="3" ry="3" style="stroke:#038048;stroke-width:1.0;"/><text fill="#000000" font-family="sans-serif" font-size="11" lengthAdjust="spacingAndGlyphs" textLength="110" x="400" y="314.3354">processCommand()</text><ellipse cx="391" cy="323.9297" fill="#84BE84" rx="3" ry="3" style="stroke:#038048;stroke-width:1.0;"/><text fill="#000000" font-family="sans-serif" font-size="11" lengthAdjust="spacingAndGlyphs" textLength="55" x="400" y="327.1401">terminal()</text><!--MD5=[86dc11bc418358166defef822e26cd29]
class hk.edu.polyu.comp.comp2021.cvfs.controller.CVFSController.loggerParser--><rect codeLine="19" fill="#FEFECE" filter="url(#f1v8o2m265slkb)" height="99.2188" id="hk.edu.polyu.comp.comp2021.cvfs.controller.CVFSController.loggerParser" style="stroke:#A80036;stroke-width:1.5;" width="229" x="295.5" y="493.9063"/><ellipse cx="322.2" cy="509.9063" fill="#ADD1B2" rx="11" ry="11" style="stroke:#A80036;stroke-width:1.0;"/><path d="M324.5438,505.5781 C323.6063,505.1406 323.0125,505 322.1375,505 C319.5125,505 317.5125,507.0781 317.5125,509.7969 L317.5125,510.9219 C317.5125,513.5 319.6219,515.3906 322.5125,515.3906 C323.7313,515.3906 324.8875,515.0938 325.6375,514.5469 C326.2156,514.1406 326.5438,513.6875 326.5438,513.2969 C326.5438,512.8438 326.1531,512.4531 325.6844,512.4531 C325.4656,512.4531 325.2625,512.5313 325.075,512.7188 C324.6219,513.2031 324.6219,513.2031 324.4344,513.2969 C324.0125,513.5625 323.325,513.6875 322.5594,513.6875 C320.5125,513.6875 319.2156,512.5938 319.2156,510.8906 L319.2156,509.7969 C319.2156,508.0156 320.4656,506.7031 322.2,506.7031 C322.7781,506.7031 323.3875,506.8594 323.8563,507.1094 C324.3406,507.3906 324.5125,507.6094 324.6063,508.0156 C324.6688,508.4219 324.7,508.5469 324.8406,508.6719 C324.9813,508.8125 325.2156,508.9219 325.4344,508.9219 C325.7,508.9219 325.9656,508.7813 326.1375,508.5625 C326.2469,508.4063 326.2781,508.2188 326.2781,507.7969 L326.2781,506.375 C326.2781,505.9375 326.2625,505.8125 326.1688,505.6563 C326.0125,505.3906 325.7313,505.25 325.4344,505.25 C325.1375,505.25 324.9344,505.3438 324.7156,505.6563 L324.5438,505.5781 Z " fill="#000000"/><text fill="#000000" font-family="sans-serif" font-size="12" lengthAdjust="spacingAndGlyphs" textLength="171" x="338.8" y="514.0605">CVFSController.loggerParser</text><line style="stroke:#A80036;stroke-width:1.5;" x1="296.5" x2="523.5" y1="525.9063" y2="525.9063"/><rect fill="none" height="6" style="stroke:#C82930;stroke-width:1.0;" width="6" x="303.5" y="533.9063"/><text fill="#000000" font-family="sans-serif" font-size="11" lengthAdjust="spacingAndGlyphs" textLength="203" x="315.5" y="540.1167">typeMap : HashMap&lt;OpType, Ops&gt;</text><line style="stroke:#A80036;stroke-width:1.5;" x1="296.5" x2="523.5" y1="546.7109" y2="546.7109"/><ellipse cx="306.5" cy="557.7109" fill="#84BE84" rx="3" ry="3" style="stroke:#038048;stroke-width:1.0;"/><text fill="#000000" font-family="sans-serif" font-size="11" lengthAdjust="spacingAndGlyphs" textLength="40" x="315.5" y="560.9214">parse()</text><ellipse cx="306.5" cy="570.5156" fill="#84BE84" rx="3" ry="3" style="stroke:#038048;stroke-width:1.0;"/><text fill="#000000" font-family="sans-serif" font-size="11" lengthAdjust="spacingAndGlyphs" textLength="34" x="315.5" y="573.7261">redo()</text><ellipse cx="306.5" cy="583.3203" fill="#84BE84" rx="3" ry="3" style="stroke:#038048;stroke-width:1.0;"/><text fill="#000000" font-family="sans-serif" font-size="11" lengthAdjust="spacingAndGlyphs" textLength="36" x="315.5" y="586.5308">undo()</text><!--MD5=[c1b41cc8485e821b27c60fec05958cf1]
class hk.edu.polyu.comp.comp2021.cvfs.controller.CVFSController.loggerParser.Ops--><rect codeLine="31" fill="#FEFECE" filter="url(#f1v8o2m265slkb)" height="60.8047" id="hk.edu.polyu.comp.comp2021.cvfs.controller.CVFSController.loggerParser.Ops" style="stroke:#A80036;stroke-width:1.5;" width="227" x="251.5" y="684.4063"/><ellipse cx="266.5" cy="700.4063" fill="#B4A7E5" rx="11" ry="11" style="stroke:#A80036;stroke-width:1.0;"/><path d="M267.4531,697.1875 L269.1719,697.1875 C269.5625,697.1875 269.75,697.1563 269.875,697.0781 C270.1406,696.9219 270.2813,696.6406 270.2813,696.3438 C270.2813,696.0781 270.1719,695.8125 269.9375,695.6406 C269.7656,695.5313 269.625,695.5 269.1719,695.5 L264.0313,695.5 C263.5938,695.5 263.4688,695.5156 263.3125,695.6094 C263.0625,695.7656 262.9063,696.0625 262.9063,696.3438 C262.9063,696.625 263.0469,696.875 263.2656,697.0469 C263.4219,697.1563 263.6094,697.1875 264.0313,697.1875 L265.75,697.1875 L265.75,703.7031 L264.0313,703.7031 C263.5938,703.7031 263.4688,703.7188 263.3125,703.8281 C263.0625,703.9844 262.9063,704.2656 262.9063,704.5625 C262.9063,704.8125 263.0469,705.0781 263.2656,705.2344 C263.4219,705.3594 263.625,705.4063 264.0313,705.4063 L269.1719,705.4063 C269.9219,705.4063 270.2813,705.125 270.2813,704.5625 C270.2813,704.2813 270.1719,704.0313 269.9375,703.8594 C269.7656,703.7344 269.625,703.7031 269.1719,703.7031 L267.4531,703.7031 L267.4531,697.1875 Z " fill="#000000"/><text fill="#000000" font-family="sans-serif" font-size="12" font-style="italic" lengthAdjust="spacingAndGlyphs" textLength="195" x="280.5" y="704.5605">CVFSController.loggerParser.Ops</text><line style="stroke:#A80036;stroke-width:1.5;" x1="252.5" x2="477.5" y1="716.4063" y2="716.4063"/><line style="stroke:#A80036;stroke-width:1.5;" x1="252.5" x2="477.5" y1="724.4063" y2="724.4063"/><ellipse cx="262.5" cy="735.4063" fill="#84BE84" rx="3" ry="3" style="stroke:#038048;stroke-width:1.0;"/><text fill="#000000" font-family="sans-serif" font-size="11" font-style="italic" lengthAdjust="spacingAndGlyphs" textLength="52" x="271.5" y="738.6167">operate()</text><!--MD5=[e645248e8edf495e22d19a8755571abf]
class hk.edu.polyu.comp.comp2021.cvfs.controller.CommandSwitch--><rect codeLine="40" fill="#FEFECE" filter="url(#f1v8o2m265slkb)" height="60.8047" id="hk.edu.polyu.comp.comp2021.cvfs.controller.CommandSwitch" style="stroke:#A80036;stroke-width:1.5;" width="131" x="213.5" y="240.9063"/><ellipse cx="228.5" cy="256.9063" fill="#ADD1B2" rx="11" ry="11" style="stroke:#A80036;stroke-width:1.0;"/><path d="M230.8438,252.5781 C229.9063,252.1406 229.3125,252 228.4375,252 C225.8125,252 223.8125,254.0781 223.8125,256.7969 L223.8125,257.9219 C223.8125,260.5 225.9219,262.3906 228.8125,262.3906 C230.0313,262.3906 231.1875,262.0938 231.9375,261.5469 C232.5156,261.1406 232.8438,260.6875 232.8438,260.2969 C232.8438,259.8438 232.4531,259.4531 231.9844,259.4531 C231.7656,259.4531 231.5625,259.5313 231.375,259.7188 C230.9219,260.2031 230.9219,260.2031 230.7344,260.2969 C230.3125,260.5625 229.625,260.6875 228.8594,260.6875 C226.8125,260.6875 225.5156,259.5938 225.5156,257.8906 L225.5156,256.7969 C225.5156,255.0156 226.7656,253.7031 228.5,253.7031 C229.0781,253.7031 229.6875,253.8594 230.1563,254.1094 C230.6406,254.3906 230.8125,254.6094 230.9063,255.0156 C230.9688,255.4219 231,255.5469 231.1406,255.6719 C231.2813,255.8125 231.5156,255.9219 231.7344,255.9219 C232,255.9219 232.2656,255.7813 232.4375,255.5625 C232.5469,255.4063 232.5781,255.2188 232.5781,254.7969 L232.5781,253.375 C232.5781,252.9375 232.5625,252.8125 232.4688,252.6563 C232.3125,252.3906 232.0313,252.25 231.7344,252.25 C231.4375,252.25 231.2344,252.3438 231.0156,252.6563 L230.8438,252.5781 Z " fill="#000000"/><text fill="#000000" font-family="sans-serif" font-size="12" lengthAdjust="spacingAndGlyphs" textLength="99" x="242.5" y="261.0605">CommandSwitch</text><line style="stroke:#A80036;stroke-width:1.5;" x1="214.5" x2="343.5" y1="272.9063" y2="272.9063"/><line style="stroke:#A80036;stroke-width:1.5;" x1="214.5" x2="343.5" y1="280.9063" y2="280.9063"/><ellipse cx="224.5" cy="291.9063" fill="#84BE84" rx="3" ry="3" style="stroke:#038048;stroke-width:1.0;"/><text fill="#000000" font-family="sans-serif" font-size="11" lengthAdjust="spacingAndGlyphs" text-decoration="underline" textLength="56" x="233.5" y="295.1167">getType()</text><!--MD5=[fba307ddb94f6a9be62fc1ab8752b965]
class hk.edu.polyu.comp.comp2021.cvfs.controller.CommandType--><rect codeLine="49" fill="#FEFECE" filter="url(#f1v8o2m265slkb)" height="291.2891" id="hk.edu.polyu.comp.comp2021.cvfs.controller.CommandType" style="stroke:#A80036;stroke-width:1.5;" width="122" x="56" y="125.9063"/><ellipse cx="71" cy="141.9063" fill="#EB937F" rx="11" ry="11" style="stroke:#A80036;stroke-width:1.0;"/><path d="M69.7969,142.7813 L71.25,142.7813 L71.25,142.8906 C71.25,143.2969 71.2813,143.4531 71.3594,143.6094 C71.5156,143.8594 71.7969,144.0156 72.0938,144.0156 C72.3438,144.0156 72.6094,143.875 72.7656,143.6563 C72.8906,143.5 72.9219,143.3438 72.9219,142.8906 L72.9219,140.9688 C72.9219,140.8125 72.9219,140.7656 72.9063,140.6094 C72.8438,140.1406 72.5313,139.8281 72.0781,139.8281 C71.8281,139.8281 71.5625,139.9688 71.3906,140.1875 C71.2813,140.3594 71.25,140.5156 71.25,140.9688 L71.25,141.0938 L69.7969,141.0938 L69.7969,138.6875 L73.7813,138.6875 L73.7813,139.5469 C73.7813,139.9531 73.8125,140.125 73.8906,140.2813 C74.0625,140.5313 74.3438,140.6875 74.625,140.6875 C74.8906,140.6875 75.1563,140.5469 75.3281,140.3281 C75.4375,140.1563 75.4688,140.0156 75.4688,139.5469 L75.4688,137 L67.8438,137 C67.4063,137 67.2813,137.0156 67.125,137.1094 C66.875,137.2656 66.7188,137.5625 66.7188,137.8438 C66.7188,138.125 66.8594,138.375 67.0781,138.5469 C67.2344,138.6563 67.4219,138.6875 67.8438,138.6875 L68.0938,138.6875 L68.0938,145.2031 L67.8438,145.2031 C67.4375,145.2031 67.2813,145.2188 67.125,145.3281 C66.875,145.5 66.7188,145.7656 66.7188,146.0625 C66.7188,146.3281 66.8594,146.5781 67.0781,146.7344 C67.2188,146.8594 67.4531,146.9063 67.8438,146.9063 L75.8438,146.9063 L75.8438,144.3281 C75.8438,143.8906 75.8125,143.75 75.7344,143.5938 C75.5625,143.3438 75.2813,143.1875 75,143.1875 C74.7344,143.1875 74.4688,143.2969 74.2969,143.5469 C74.1875,143.7031 74.1563,143.8438 74.1563,144.3281 L74.1563,145.2031 L69.7969,145.2031 L69.7969,142.7813 Z " fill="#000000"/><text fill="#000000" font-family="sans-serif" font-size="12" lengthAdjust="spacingAndGlyphs" textLength="90" x="85" y="146.0605">CommandType</text><line style="stroke:#A80036;stroke-width:1.5;" x1="57" x2="177" y1="157.9063" y2="157.9063"/><text fill="#000000" font-family="sans-serif" font-size="11" lengthAdjust="spacingAndGlyphs" textLength="58" x="62" y="172.1167">changeDir</text><text fill="#000000" font-family="sans-serif" font-size="11" lengthAdjust="spacingAndGlyphs" textLength="38" x="62" y="184.9214">delete</text><text fill="#000000" font-family="sans-serif" font-size="11" lengthAdjust="spacingAndGlyphs" textLength="37" x="62" y="197.7261">invalid</text><text fill="#000000" font-family="sans-serif" font-size="11" lengthAdjust="spacingAndGlyphs" textLength="16" x="62" y="210.5308">list</text><text fill="#000000" font-family="sans-serif" font-size="11" lengthAdjust="spacingAndGlyphs" textLength="24" x="62" y="223.3354">load</text><text fill="#000000" font-family="sans-serif" font-size="11" lengthAdjust="spacingAndGlyphs" textLength="75" x="62" y="236.1401">newBinaryCri</text><text fill="#000000" font-family="sans-serif" font-size="11" lengthAdjust="spacingAndGlyphs" textLength="40" x="62" y="248.9448">newDir</text><text fill="#000000" font-family="sans-serif" font-size="11" lengthAdjust="spacingAndGlyphs" textLength="48" x="62" y="261.7495">newDisk</text><text fill="#000000" font-family="sans-serif" font-size="11" lengthAdjust="spacingAndGlyphs" textLength="46" x="62" y="274.5542">newDoc</text><text fill="#000000" font-family="sans-serif" font-size="11" lengthAdjust="spacingAndGlyphs" textLength="75" x="62" y="287.3589">newNegation</text><text fill="#000000" font-family="sans-serif" font-size="11" lengthAdjust="spacingAndGlyphs" textLength="79" x="62" y="300.1636">newSimpleCri</text><text fill="#000000" font-family="sans-serif" font-size="11" lengthAdjust="spacingAndGlyphs" textLength="80" x="62" y="312.9683">printAllCriteria</text><text fill="#000000" font-family="sans-serif" font-size="11" lengthAdjust="spacingAndGlyphs" textLength="23" x="62" y="325.7729">rList</text><text fill="#000000" font-family="sans-serif" font-size="11" lengthAdjust="spacingAndGlyphs" textLength="26" x="62" y="338.5776">redo</text><text fill="#000000" font-family="sans-serif" font-size="11" lengthAdjust="spacingAndGlyphs" textLength="45" x="62" y="351.3823">rename</text><text fill="#000000" font-family="sans-serif" font-size="11" lengthAdjust="spacingAndGlyphs" textLength="42" x="62" y="364.187">rsearch</text><text fill="#000000" font-family="sans-serif" font-size="11" lengthAdjust="spacingAndGlyphs" textLength="38" x="62" y="376.9917">search</text><text fill="#000000" font-family="sans-serif" font-size="11" lengthAdjust="spacingAndGlyphs" textLength="29" x="62" y="389.7964">store</text><text fill="#000000" font-family="sans-serif" font-size="11" lengthAdjust="spacingAndGlyphs" textLength="28" x="62" y="402.6011">undo</text><line style="stroke:#A80036;stroke-width:1.5;" x1="57" x2="177" y1="409.1953" y2="409.1953"/><!--MD5=[84c8db9f80977187d8e9b2cf4b2613b2]
class hk.edu.polyu.comp.comp2021.cvfs.model.CVFS--><rect fill="#FEFECE" filter="url(#f1v8o2m265slkb)" height="48" id="hk.edu.polyu.comp.comp2021.cvfs.model.CVFS" style="stroke:#A80036;stroke-width:1.5;" width="63" x="760.5" y="690.9063"/><ellipse cx="775.5" cy="706.9063" fill="#ADD1B2" rx="11" ry="11" style="stroke:#A80036;stroke-width:1.0;"/><path d="M777.8438,702.5781 C776.9063,702.1406 776.3125,702 775.4375,702 C772.8125,702 770.8125,704.0781 770.8125,706.7969 L770.8125,707.9219 C770.8125,710.5 772.9219,712.3906 775.8125,712.3906 C777.0313,712.3906 778.1875,712.0938 778.9375,711.5469 C779.5156,711.1406 779.8438,710.6875 779.8438,710.2969 C779.8438,709.8438 779.4531,709.4531 778.9844,709.4531 C778.7656,709.4531 778.5625,709.5313 778.375,709.7188 C777.9219,710.2031 777.9219,710.2031 777.7344,710.2969 C777.3125,710.5625 776.625,710.6875 775.8594,710.6875 C773.8125,710.6875 772.5156,709.5938 772.5156,707.8906 L772.5156,706.7969 C772.5156,705.0156 773.7656,703.7031 775.5,703.7031 C776.0781,703.7031 776.6875,703.8594 777.1563,704.1094 C777.6406,704.3906 777.8125,704.6094 777.9063,705.0156 C777.9688,705.4219 778,705.5469 778.1406,705.6719 C778.2813,705.8125 778.5156,705.9219 778.7344,705.9219 C779,705.9219 779.2656,705.7813 779.4375,705.5625 C779.5469,705.4063 779.5781,705.2188 779.5781,704.7969 L779.5781,703.375 C779.5781,702.9375 779.5625,702.8125 779.4688,702.6563 C779.3125,702.3906 779.0313,702.25 778.7344,702.25 C778.4375,702.25 778.2344,702.3438 778.0156,702.6563 L777.8438,702.5781 Z " fill="#000000"/><text fill="#000000" font-family="sans-serif" font-size="12" lengthAdjust="spacingAndGlyphs" textLength="31" x="789.5" y="711.0605">CVFS</text><line style="stroke:#A80036;stroke-width:1.5;" x1="761.5" x2="822.5" y1="722.9063" y2="722.9063"/><line style="stroke:#A80036;stroke-width:1.5;" x1="761.5" x2="822.5" y1="730.9063" y2="730.9063"/><!--MD5=[0a76a1ace45b89a1900ac2cec77f0926]
class hk.edu.polyu.comp.comp2021.cvfs.model.TraceLogger--><rect fill="#FEFECE" filter="url(#f1v8o2m265slkb)" height="48" id="hk.edu.polyu.comp.comp2021.cvfs.model.TraceLogger" style="stroke:#A80036;stroke-width:1.5;" width="109" x="616.5" y="690.9063"/><ellipse cx="631.5" cy="706.9063" fill="#ADD1B2" rx="11" ry="11" style="stroke:#A80036;stroke-width:1.0;"/><path d="M633.8438,702.5781 C632.9063,702.1406 632.3125,702 631.4375,702 C628.8125,702 626.8125,704.0781 626.8125,706.7969 L626.8125,707.9219 C626.8125,710.5 628.9219,712.3906 631.8125,712.3906 C633.0313,712.3906 634.1875,712.0938 634.9375,711.5469 C635.5156,711.1406 635.8438,710.6875 635.8438,710.2969 C635.8438,709.8438 635.4531,709.4531 634.9844,709.4531 C634.7656,709.4531 634.5625,709.5313 634.375,709.7188 C633.9219,710.2031 633.9219,710.2031 633.7344,710.2969 C633.3125,710.5625 632.625,710.6875 631.8594,710.6875 C629.8125,710.6875 628.5156,709.5938 628.5156,707.8906 L628.5156,706.7969 C628.5156,705.0156 629.7656,703.7031 631.5,703.7031 C632.0781,703.7031 632.6875,703.8594 633.1563,704.1094 C633.6406,704.3906 633.8125,704.6094 633.9063,705.0156 C633.9688,705.4219 634,705.5469 634.1406,705.6719 C634.2813,705.8125 634.5156,705.9219 634.7344,705.9219 C635,705.9219 635.2656,705.7813 635.4375,705.5625 C635.5469,705.4063 635.5781,705.2188 635.5781,704.7969 L635.5781,703.375 C635.5781,702.9375 635.5625,702.8125 635.4688,702.6563 C635.3125,702.3906 635.0313,702.25 634.7344,702.25 C634.4375,702.25 634.2344,702.3438 634.0156,702.6563 L633.8438,702.5781 Z " fill="#000000"/><text fill="#000000" font-family="sans-serif" font-size="12" lengthAdjust="spacingAndGlyphs" textLength="77" x="645.5" y="711.0605">TraceLogger</text><line style="stroke:#A80036;stroke-width:1.5;" x1="617.5" x2="724.5" y1="722.9063" y2="722.9063"/><line style="stroke:#A80036;stroke-width:1.5;" x1="617.5" x2="724.5" y1="730.9063" y2="730.9063"/><!--MD5=[401291756678c251497818224a612585]
class hk.edu.polyu.comp.comp2021.cvfs.view.CVFSView--><rect fill="#FEFECE" filter="url(#f1v8o2m265slkb)" height="48" id="hk.edu.polyu.comp.comp2021.cvfs.view.CVFSView" style="stroke:#A80036;stroke-width:1.5;" width="92" x="705" y="519.4063"/><ellipse cx="720" cy="535.4063" fill="#ADD1B2" rx="11" ry="11" style="stroke:#A80036;stroke-width:1.0;"/><path d="M722.3438,531.0781 C721.4063,530.6406 720.8125,530.5 719.9375,530.5 C717.3125,530.5 715.3125,532.5781 715.3125,535.2969 L715.3125,536.4219 C715.3125,539 717.4219,540.8906 720.3125,540.8906 C721.5313,540.8906 722.6875,540.5938 723.4375,540.0469 C724.0156,539.6406 724.3438,539.1875 724.3438,538.7969 C724.3438,538.3438 723.9531,537.9531 723.4844,537.9531 C723.2656,537.9531 723.0625,538.0313 722.875,538.2188 C722.4219,538.7031 722.4219,538.7031 722.2344,538.7969 C721.8125,539.0625 721.125,539.1875 720.3594,539.1875 C718.3125,539.1875 717.0156,538.0938 717.0156,536.3906 L717.0156,535.2969 C717.0156,533.5156 718.2656,532.2031 720,532.2031 C720.5781,532.2031 721.1875,532.3594 721.6563,532.6094 C722.1406,532.8906 722.3125,533.1094 722.4063,533.5156 C722.4688,533.9219 722.5,534.0469 722.6406,534.1719 C722.7813,534.3125 723.0156,534.4219 723.2344,534.4219 C723.5,534.4219 723.7656,534.2813 723.9375,534.0625 C724.0469,533.9063 724.0781,533.7188 724.0781,533.2969 L724.0781,531.875 C724.0781,531.4375 724.0625,531.3125 723.9688,531.1563 C723.8125,530.8906 723.5313,530.75 723.2344,530.75 C722.9375,530.75 722.7344,530.8438 722.5156,531.1563 L722.3438,531.0781 Z " fill="#000000"/><text fill="#000000" font-family="sans-serif" font-size="12" lengthAdjust="spacingAndGlyphs" textLength="60" x="734" y="539.5605">CVFSView</text><line style="stroke:#A80036;stroke-width:1.5;" x1="706" x2="796" y1="551.4063" y2="551.4063"/><line style="stroke:#A80036;stroke-width:1.5;" x1="706" x2="796" y1="559.4063" y2="559.4063"/><!--MD5=[be2704c9bcf83bc995c296100f68c841]
reverse link hk.edu.polyu.comp.comp2021.cvfs.controller.CVFSController to hk.edu.polyu.comp.comp2021.cvfs.model.CVFS--><path codeLine="74" d="M492.773,345.7873 C528.079,415.0373 587.749,518.9853 660,592.9063 C690.932,624.5532 710.884,617.4613 743,647.9063 C756.361,660.5713 768.698,677.2313 777.652,690.6443 " fill="none" id="hk.edu.polyu.comp.comp2021.cvfs.controller.CVFSController-backto-hk.edu.polyu.comp.comp2021.cvfs.model.CVFS" style="stroke:#A80036;stroke-width:1.0;"/><polygon fill="#FFFFFF" points="486.893,334.1303,486.0242,341.2888,492.298,344.8441,493.1668,337.6855,486.893,334.1303" style="stroke:#A80036;stroke-width:1.0;"/><text fill="#000000" font-family="sans-serif" font-size="13" lengthAdjust="spacingAndGlyphs" textLength="27" x="661" y="547.9731">cvfs</text><!--MD5=[88a7a9ef11a64fbfe99a316697e24592]
reverse link hk.edu.polyu.comp.comp2021.cvfs.controller.CVFSController to hk.edu.polyu.comp.comp2021.cvfs.controller.CVFSController.loggerParser--><path codeLine="75" d="M431.195,346.7993 C421.514,377.3793 411.794,413.4163 407,446.9063 C405.929,454.3853 406.856,456.3523 407,463.9063 C407.185,473.5883 407.498,483.9373 407.854,493.8393 " fill="none" id="hk.edu.polyu.comp.comp2021.cvfs.controller.CVFSController-backto-hk.edu.polyu.comp.comp2021.cvfs.controller.CVFSController.loggerParser" style="stroke:#A80036;stroke-width:1.0;"/><polygon fill="#FFFFFF" points="435.327,334.0513,429.6719,338.5256,431.6269,345.4666,437.2821,340.9923,435.327,334.0513" style="stroke:#A80036;stroke-width:1.0;"/><text fill="#000000" font-family="sans-serif" font-size="13" lengthAdjust="spacingAndGlyphs" textLength="40" x="408" y="459.9731">logger</text><!--MD5=[88a7a9ef11a64fbfe99a316697e24592]
reverse link hk.edu.polyu.comp.comp2021.cvfs.controller.CVFSController to hk.edu.polyu.comp.comp2021.cvfs.controller.CVFSController.loggerParser--><path codeLine="77" d="M464.2,349.5063 C464.971,384.9193 462.927,427.1263 453,463.9063 C450.287,473.9583 446.049,484.1253 441.27,493.6593 " fill="none" id="hk.edu.polyu.comp.comp2021.cvfs.controller.CVFSController-backto-hk.edu.polyu.comp.comp2021.cvfs.controller.CVFSController.loggerParser-1" style="stroke:#A80036;stroke-width:1.0;"/><ellipse cx="463.9562" cy="342.2658" fill="#FFFFFF" rx="8" ry="8" style="stroke:#A80036;stroke-width:1.0;"/><line style="stroke:#A80036;stroke-width:1.0;" x1="464.2243" x2="463.688" y1="350.2613" y2="334.2703"/><line style="stroke:#A80036;stroke-width:1.0;" x1="455.9607" x2="471.9517" y1="342.5339" y2="341.9976"/><!--MD5=[1a2b294069c70e3668f0e97bf1ffacc8]
reverse link hk.edu.polyu.comp.comp2021.cvfs.controller.CVFSController to hk.edu.polyu.comp.comp2021.cvfs.view.CVFSView--><path codeLine="76" d="M546.971,341.6413 C585.095,372.5753 629.405,410.2663 667,446.9063 C690.878,470.1773 715.812,499.2213 732.249,519.1323 " fill="none" id="hk.edu.polyu.comp.comp2021.cvfs.controller.CVFSController-backto-hk.edu.polyu.comp.comp2021.cvfs.view.CVFSView" style="stroke:#A80036;stroke-width:1.0;"/><polygon fill="#FFFFFF" points="536.393,333.1023,538.5482,339.9838,545.7292,340.6411,543.5741,333.7596,536.393,333.1023" style="stroke:#A80036;stroke-width:1.0;"/><text fill="#000000" font-family="sans-serif" font-size="13" lengthAdjust="spacingAndGlyphs" textLength="30" x="685" y="459.9731">view</text><!--MD5=[1acedd32ef81a35e6cc3f0f672d58a12]
reverse link hk.edu.polyu.comp.comp2021.cvfs.controller.CVFSController.loggerParser to hk.edu.polyu.comp.comp2021.cvfs.controller.CVFSController.loggerParser.Ops--><path codeLine="78" d="M282.496,568.1853 C225.687,581.6233 167.786,600.2783 151,622.9063 C117.505,668.0573 183.767,691.0143 251.171,702.5618 " fill="none" id="hk.edu.polyu.comp.comp2021.cvfs.controller.CVFSController.loggerParser-backto-hk.edu.polyu.comp.comp2021.cvfs.controller.CVFSController.loggerParser.Ops" style="stroke:#A80036;stroke-width:1.0;"/><polygon fill="#FFFFFF" points="295.349,565.2262,288.6044,562.6746,283.655,567.919,290.3996,570.4706,295.349,565.2262" style="stroke:#A80036;stroke-width:1.0;"/><text fill="#000000" font-family="sans-serif" font-size="13" lengthAdjust="spacingAndGlyphs" textLength="24" x="152" y="635.9731">add</text><!--MD5=[1acedd32ef81a35e6cc3f0f672d58a12]
reverse link hk.edu.polyu.comp.comp2021.cvfs.controller.CVFSController.loggerParser to hk.edu.polyu.comp.comp2021.cvfs.controller.CVFSController.loggerParser.Ops--><path codeLine="79" d="M283.37,571.2243 C257.251,582.7723 232.891,599.2873 217,622.9063 C199.068,649.5583 221.67,669.7853 254.184,684.3183 " fill="none" id="hk.edu.polyu.comp.comp2021.cvfs.controller.CVFSController.loggerParser-backto-hk.edu.polyu.comp.comp2021.cvfs.controller.CVFSController.loggerParser.Ops-1" style="stroke:#A80036;stroke-width:1.0;"/><polygon fill="#FFFFFF" points="295.471,566.2603,288.4018,564.837,284.369,570.815,291.4382,572.2383,295.471,566.2603" style="stroke:#A80036;stroke-width:1.0;"/><text fill="#000000" font-family="sans-serif" font-size="13" lengthAdjust="spacingAndGlyphs" textLength="15" x="218" y="635.9731">cd</text><!--MD5=[1acedd32ef81a35e6cc3f0f672d58a12]
reverse link hk.edu.polyu.comp.comp2021.cvfs.controller.CVFSController.loggerParser to hk.edu.polyu.comp.comp2021.cvfs.controller.CVFSController.loggerParser.Ops--><path codeLine="80" d="M290.2,601.8363 C283.957,608.2063 278.442,615.2133 274,622.9063 C260.481,646.3183 280.072,667.9282 304.493,684.2093 " fill="none" id="hk.edu.polyu.comp.comp2021.cvfs.controller.CVFSController.loggerParser-backto-hk.edu.polyu.comp.comp2021.cvfs.controller.CVFSController.loggerParser.Ops-2" style="stroke:#A80036;stroke-width:1.0;"/><polygon fill="#FFFFFF" points="299.826,592.9533,292.7039,594.0828,291.0073,601.0915,298.1294,599.9619,299.826,592.9533" style="stroke:#A80036;stroke-width:1.0;"/><text fill="#000000" font-family="sans-serif" font-size="13" lengthAdjust="spacingAndGlyphs" textLength="16" x="275" y="635.9731">dd</text><!--MD5=[1acedd32ef81a35e6cc3f0f672d58a12]
reverse link hk.edu.polyu.comp.comp2021.cvfs.controller.CVFSController.loggerParser to hk.edu.polyu.comp.comp2021.cvfs.controller.CVFSController.loggerParser.Ops--><path codeLine="81" d="M342.533,603.7903 C338.362,609.8523 334.746,616.2452 332,622.9063 C323.672,643.1033 332.312,666.2543 342.834,684.1513 " fill="none" id="hk.edu.polyu.comp.comp2021.cvfs.controller.CVFSController.loggerParser-backto-hk.edu.polyu.comp.comp2021.cvfs.controller.CVFSController.loggerParser.Ops-3" style="stroke:#A80036;stroke-width:1.0;"/><polygon fill="#FFFFFF" points="350.573,593.2503,343.7535,595.5941,343.2941,602.7906,350.1137,600.4467,350.573,593.2503" style="stroke:#A80036;stroke-width:1.0;"/><text fill="#000000" font-family="sans-serif" font-size="13" lengthAdjust="spacingAndGlyphs" textLength="19" x="333" y="635.9731">del</text><!--MD5=[1acedd32ef81a35e6cc3f0f672d58a12]
reverse link hk.edu.polyu.comp.comp2021.cvfs.controller.CVFSController.loggerParser to hk.edu.polyu.comp.comp2021.cvfs.controller.CVFSController.loggerParser.Ops--><path codeLine="82" d="M393.708,605.7742 C386.613,632.4963 378.626,662.5833 372.88,684.2233 " fill="none" id="hk.edu.polyu.comp.comp2021.cvfs.controller.CVFSController.loggerParser-backto-hk.edu.polyu.comp.comp2021.cvfs.controller.CVFSController.loggerParser.Ops-4" style="stroke:#A80036;stroke-width:1.0;"/><polygon fill="#FFFFFF" points="397.105,592.9783,391.6995,597.7511,394.0261,604.5765,399.4316,599.8037,397.105,592.9783" style="stroke:#A80036;stroke-width:1.0;"/><text fill="#000000" font-family="sans-serif" font-size="13" lengthAdjust="spacingAndGlyphs" textLength="11" x="390" y="635.9731">ld</text><!--MD5=[1acedd32ef81a35e6cc3f0f672d58a12]
reverse link hk.edu.polyu.comp.comp2021.cvfs.controller.CVFSController.loggerParser to hk.edu.polyu.comp.comp2021.cvfs.controller.CVFSController.loggerParser.Ops--><path codeLine="84" d="M414.897,606.2943 C414.419,617.6253 412.99,629.2343 410,639.9063 C405.578,655.6883 396.764,671.4463 388.099,684.3393 " fill="none" id="hk.edu.polyu.comp.comp2021.cvfs.controller.CVFSController.loggerParser-backto-hk.edu.polyu.comp.comp2021.cvfs.controller.CVFSController.loggerParser.Ops-5" style="stroke:#A80036;stroke-width:1.0;"/><polygon fill="#FFFFFF" points="415.06,593.1953,410.9858,599.1451,414.911,605.1943,418.9852,599.2445,415.06,593.1953" style="stroke:#A80036;stroke-width:1.0;"/><text fill="#000000" font-family="sans-serif" font-size="13" lengthAdjust="spacingAndGlyphs" textLength="21" x="415" y="635.9731">ren</text><!--MD5=[1acedd32ef81a35e6cc3f0f672d58a12]
reverse link hk.edu.polyu.comp.comp2021.cvfs.controller.CVFSController.loggerParser to hk.edu.polyu.comp.comp2021.cvfs.controller.CVFSController.loggerParser.Ops--><path codeLine="85" d="M446.648,605.3203 C449.594,616.9053 449.831,628.8563 445,639.9063 C437.421,657.2413 423.556,672.3253 409.472,684.2713 " fill="none" id="hk.edu.polyu.comp.comp2021.cvfs.controller.CVFSController.loggerParser-backto-hk.edu.polyu.comp.comp2021.cvfs.controller.CVFSController.loggerParser.Ops-6" style="stroke:#A80036;stroke-width:1.0;"/><polygon fill="#FFFFFF" points="442.5,592.9523,440.615,599.9126,446.3149,604.3297,448.1999,597.3693,442.5,592.9523" style="stroke:#A80036;stroke-width:1.0;"/><text fill="#000000" font-family="sans-serif" font-size="13" lengthAdjust="spacingAndGlyphs" textLength="15" x="450" y="635.9731">sd</text><!--MD5=[1acedd32ef81a35e6cc3f0f672d58a12]
reverse link hk.edu.polyu.comp.comp2021.cvfs.controller.CVFSController.loggerParser to hk.edu.polyu.comp.comp2021.cvfs.controller.CVFSController.loggerParser.Ops--><path codeLine="86" d="M474.256,606.3143 C478.992,617.2703 479.912,628.7473 474,639.9063 C464.256,658.2983 447.666,672.9653 430.329,684.2323 " fill="none" id="hk.edu.polyu.comp.comp2021.cvfs.controller.CVFSController.loggerParser-backto-hk.edu.polyu.comp.comp2021.cvfs.controller.CVFSController.loggerParser.Ops-7" style="stroke:#A80036;stroke-width:1.0;"/><ellipse cx="470.7625" cy="600.2087" fill="#FFFFFF" rx="8" ry="8" style="stroke:#A80036;stroke-width:1.0;"/><line style="stroke:#A80036;stroke-width:1.0;" x1="474.7359" x2="466.789" y1="607.1522" y2="593.2653"/><line style="stroke:#A80036;stroke-width:1.0;" x1="463.819" x2="477.7059" y1="604.1822" y2="596.2352"/><!--MD5=[64de801ac4bc16915a851417d3c2dd28]
reverse link hk.edu.polyu.comp.comp2021.cvfs.controller.CVFSController.loggerParser to hk.edu.polyu.comp.comp2021.cvfs.model.TraceLogger--><path codeLine="83" d="M495.695,600.0593 C543.112,630.8523 599.51,667.4793 635.282,690.7103 " fill="none" id="hk.edu.polyu.comp.comp2021.cvfs.controller.CVFSController.loggerParser-backto-hk.edu.polyu.comp.comp2021.cvfs.model.TraceLogger" style="stroke:#A80036;stroke-width:1.0;"/><polygon fill="#FFFFFF" points="484.792,592.9783,487.6456,599.6007,494.8562,599.5137,492.0026,592.8912,484.792,592.9783" style="stroke:#A80036;stroke-width:1.0;"/><text fill="#000000" font-family="sans-serif" font-size="13" lengthAdjust="spacingAndGlyphs" textLength="40" x="558" y="635.9731">logger</text><text fill="#888888" font-family="sans-serif" font-size="10" lengthAdjust="spacingAndGlyphs" textLength="0" x="1028" y="800.6885"/><text fill="#888888" font-family="sans-serif" font-size="10" lengthAdjust="spacingAndGlyphs" textLength="0" x="1028" y="812.3291"/><text fill="#888888" font-family="sans-serif" font-size="10" lengthAdjust="spacingAndGlyphs" textLength="645" x="383" y="823.9697">CVFS(Comp Virtual File System) Class Diagram proposed by Group 30: MAN Furui, WANG Meng, XING Shiji, ZHANG Yubo.</text><text fill="#888888" font-family="sans-serif" font-size="10" lengthAdjust="spacingAndGlyphs" textLength="565" x="463" y="835.6104">COMP2021 Object-Oriented Programming, Year 2020 Semester 1, The Hong Kong Polytechnic University.</text><!--MD5=[3cea643d33f5b15dfa83b06dfed41943]
@startuml
title __CONTROLLER's Class Diagram__\n

  namespace hk.edu.polyu.comp.comp2021.cvfs {
    namespace controller {
      class hk.edu.polyu.comp.comp2021.cvfs.controller.CVFSController {
          {static} - numParamError : String
          - scanner : Scanner
          + CVFSController()
          + getCommand()
          + processCommand()
          + terminal()
      }
    }
  }
  

  namespace hk.edu.polyu.comp.comp2021.cvfs {
    namespace controller {
      class hk.edu.polyu.comp.comp2021.cvfs.controller.CVFSController.loggerParser {
          - typeMap : HashMap<OpType, Ops>
          + parse()
          + redo()
          + undo()
      }
    }
  }
  

  namespace hk.edu.polyu.comp.comp2021.cvfs {
    namespace controller {
      interface hk.edu.polyu.comp.comp2021.cvfs.controller.CVFSController.loggerParser.Ops {
          {abstract} + operate()
      }
    }
  }
  

  namespace hk.edu.polyu.comp.comp2021.cvfs {
    namespace controller {
      class hk.edu.polyu.comp.comp2021.cvfs.controller.CommandSwitch {
          {static} + getType()
      }
    }
  }
  

  namespace hk.edu.polyu.comp.comp2021.cvfs {
    namespace controller {
      enum CommandType {
        changeDir
        delete
        invalid
        list
        load
        newBinaryCri
        newDir
        newDisk
        newDoc
        newNegation
        newSimpleCri
        printAllCriteria
        rList
        redo
        rename
        rsearch
        search
        store
        undo
      }
    }
  }
  

  hk.edu.polyu.comp.comp2021.cvfs.controller.CVFSController o- - hk.edu.polyu.comp.comp2021.cvfs.model.CVFS : cvfs
  hk.edu.polyu.comp.comp2021.cvfs.controller.CVFSController o- - hk.edu.polyu.comp.comp2021.cvfs.controller.CVFSController.loggerParser : logger
  hk.edu.polyu.comp.comp2021.cvfs.controller.CVFSController o- - hk.edu.polyu.comp.comp2021.cvfs.view.CVFSView : view
  hk.edu.polyu.comp.comp2021.cvfs.controller.CVFSController +-down- hk.edu.polyu.comp.comp2021.cvfs.controller.CVFSController.loggerParser
  hk.edu.polyu.comp.comp2021.cvfs.controller.CVFSController.loggerParser o- - hk.edu.polyu.comp.comp2021.cvfs.controller.CVFSController.loggerParser.Ops : add
  hk.edu.polyu.comp.comp2021.cvfs.controller.CVFSController.loggerParser o- - hk.edu.polyu.comp.comp2021.cvfs.controller.CVFSController.loggerParser.Ops : cd
  hk.edu.polyu.comp.comp2021.cvfs.controller.CVFSController.loggerParser o- - hk.edu.polyu.comp.comp2021.cvfs.controller.CVFSController.loggerParser.Ops : dd
  hk.edu.polyu.comp.comp2021.cvfs.controller.CVFSController.loggerParser o- - hk.edu.polyu.comp.comp2021.cvfs.controller.CVFSController.loggerParser.Ops : del
  hk.edu.polyu.comp.comp2021.cvfs.controller.CVFSController.loggerParser o- - hk.edu.polyu.comp.comp2021.cvfs.controller.CVFSController.loggerParser.Ops : ld
  hk.edu.polyu.comp.comp2021.cvfs.controller.CVFSController.loggerParser o- - hk.edu.polyu.comp.comp2021.cvfs.model.TraceLogger : logger
  hk.edu.polyu.comp.comp2021.cvfs.controller.CVFSController.loggerParser o- - hk.edu.polyu.comp.comp2021.cvfs.controller.CVFSController.loggerParser.Ops : ren
  hk.edu.polyu.comp.comp2021.cvfs.controller.CVFSController.loggerParser o- - hk.edu.polyu.comp.comp2021.cvfs.controller.CVFSController.loggerParser.Ops : sd
  hk.edu.polyu.comp.comp2021.cvfs.controller.CVFSController.loggerParser +-down- hk.edu.polyu.comp.comp2021.cvfs.controller.CVFSController.loggerParser.Ops


right footer


CVFS(Comp Virtual File System) Class Diagram proposed by Group 30: MAN Furui, WANG Meng, XING Shiji, ZHANG Yubo.
COMP2021 Object-Oriented Programming, Year 2020 Semester 1, The Hong Kong Polytechnic University.
endfooter
@enduml

PlantUML version 1.2020.21beta7(Unknown compile time)
(GPL source distribution)
Java Runtime: Java(TM) SE Runtime Environment
JVM: Java HotSpot(TM) 64-Bit Server VM
Default Encoding: UTF-8
Language: en
Country: US
--></g></svg>