<?xml version="1.0" encoding="UTF-8" standalone="no"?><svg xmlns="http://www.w3.org/2000/svg" xmlns:xlink="http://www.w3.org/1999/xlink" contentScriptType="application/ecmascript" contentStyleType="text/css" height="786px" preserveAspectRatio="none" style="width:1247px;height:786px;" version="1.1" viewBox="0 0 1247 786" width="1247px" zoomAndPan="magnify"><defs><filter height="300%" id="f1u1gkm9byw674" width="300%" x="-1" y="-1"><feGaussianBlur result="blurOut" stdDeviation="2.0"/><feColorMatrix in="blurOut" result="blurOut2" type="matrix" values="0 0 0 0 0 0 0 0 0 0 0 0 0 0 0 0 0 0 .4 0"/><feOffset dx="4.0" dy="4.0" in="blurOut2" result="blurOut3"/><feBlend in="SourceGraphic" in2="blurOut3" mode="normal"/></filter></defs><g><text fill="#000000" font-family="sans-serif" font-size="18" lengthAdjust="spacingAndGlyphs" text-decoration="underline" textLength="414" x="410" y="16.708">COMP2021_GROUP_PROJECT's Class Diagram</text><text fill="#000000" font-family="sans-serif" font-size="18" lengthAdjust="spacingAndGlyphs" textLength="0" x="620" y="37.6611"/><!--MD5=[7696743e9eab3d07d0242f740cb8a12e]
cluster hk.edu.polyu.comp.comp2021.cvfs--><polygon fill="#FFFFFF" filter="url(#f1u1gkm9byw674)" points="16,179.9063,301,179.9063,308,202.2031,1230,202.2031,1230,727.9063,16,727.9063,16,179.9063" style="stroke:#000000;stroke-width:1.5;"/><line style="stroke:#000000;stroke-width:1.5;" x1="16" x2="308" y1="202.2031" y2="202.2031"/><text fill="#000000" font-family="sans-serif" font-size="14" font-weight="bold" lengthAdjust="spacingAndGlyphs" textLength="279" x="20" y="194.9014">hk.edu.polyu.comp.comp2021.cvfs</text><!--MD5=[3233057dfd38e04130fdd0653899dee5]
cluster hk.edu.polyu.comp.comp2021.cvfs.controller--><polygon fill="#FFFFFF" filter="url(#f1u1gkm9byw674)" points="728,222.9063,814,222.9063,821,245.2031,1206,245.2031,1206,467.9063,728,467.9063,728,222.9063" style="stroke:#000000;stroke-width:1.5;"/><line style="stroke:#000000;stroke-width:1.5;" x1="728" x2="821" y1="245.2031" y2="245.2031"/><text fill="#000000" font-family="sans-serif" font-size="14" font-weight="bold" lengthAdjust="spacingAndGlyphs" textLength="80" x="732" y="237.9014">controller</text><!--MD5=[2d52001ffc905d2795e553564b87a26a]
cluster hk.edu.polyu.comp.comp2021.cvfs.model--><polygon fill="#FFFFFF" filter="url(#f1u1gkm9byw674)" points="146,222.9063,201,222.9063,208,245.2031,556,245.2031,556,703.9063,146,703.9063,146,222.9063" style="stroke:#000000;stroke-width:1.5;"/><line style="stroke:#000000;stroke-width:1.5;" x1="146" x2="208" y1="245.2031" y2="245.2031"/><text fill="#000000" font-family="sans-serif" font-size="14" font-weight="bold" lengthAdjust="spacingAndGlyphs" textLength="49" x="150" y="237.9014">model</text><!--MD5=[f4c007498b8e7188fbe01ecea3485a4b]
cluster hk.edu.polyu.comp.comp2021.cvfs.view--><polygon fill="#FFFFFF" filter="url(#f1u1gkm9byw674)" points="580,368.9063,622,368.9063,629,391.2031,704,391.2031,704,467.9063,580,467.9063,580,368.9063" style="stroke:#000000;stroke-width:1.5;"/><line style="stroke:#000000;stroke-width:1.5;" x1="580" x2="629" y1="391.2031" y2="391.2031"/><text fill="#000000" font-family="sans-serif" font-size="14" font-weight="bold" lengthAdjust="spacingAndGlyphs" textLength="36" x="584" y="383.9014">view</text><!--MD5=[aa8f7b917213fcc1c2766e2d59b49067]
cluster java.lang--><polygon fill="#FFFFFF" filter="url(#f1u1gkm9byw674)" points="253,47.9063,333,47.9063,340,70.2031,377,70.2031,377,146.9063,253,146.9063,253,47.9063" style="stroke:#000000;stroke-width:1.5;"/><line style="stroke:#000000;stroke-width:1.5;" x1="253" x2="340" y1="70.2031" y2="70.2031"/><text fill="#000000" font-family="sans-serif" font-size="14" font-weight="bold" lengthAdjust="spacingAndGlyphs" textLength="74" x="257" y="62.9014">java.lang</text><!--MD5=[0d852700fdad35b7061d461d6907a324]
cluster java.io--><polygon fill="#FFFFFF" filter="url(#f1u1gkm9byw674)" points="401,47.9063,461,47.9063,468,70.2031,535,70.2031,535,146.9063,401,146.9063,401,47.9063" style="stroke:#000000;stroke-width:1.5;"/><line style="stroke:#000000;stroke-width:1.5;" x1="401" x2="468" y1="70.2031" y2="70.2031"/><text fill="#000000" font-family="sans-serif" font-size="14" font-weight="bold" lengthAdjust="spacingAndGlyphs" textLength="54" x="405" y="62.9014">java.io</text><!--MD5=[514477ea28748cef29f0743b27198650]
class hk.edu.polyu.comp.comp2021.cvfs.Application--><rect codeLine="4" fill="#FEFECE" filter="url(#f1u1gkm9byw674)" height="48" id="hk.edu.polyu.comp.comp2021.cvfs.Application" style="stroke:#A80036;stroke-width:1.5;" width="98" x="32" y="257.9063"/><ellipse cx="47" cy="273.9063" fill="#ADD1B2" rx="11" ry="11" style="stroke:#A80036;stroke-width:1.0;"/><path d="M49.3438,269.5781 C48.4063,269.1406 47.8125,269 46.9375,269 C44.3125,269 42.3125,271.0781 42.3125,273.7969 L42.3125,274.9219 C42.3125,277.5 44.4219,279.3906 47.3125,279.3906 C48.5313,279.3906 49.6875,279.0938 50.4375,278.5469 C51.0156,278.1406 51.3438,277.6875 51.3438,277.2969 C51.3438,276.8438 50.9531,276.4531 50.4844,276.4531 C50.2656,276.4531 50.0625,276.5313 49.875,276.7188 C49.4219,277.2031 49.4219,277.2031 49.2344,277.2969 C48.8125,277.5625 48.125,277.6875 47.3594,277.6875 C45.3125,277.6875 44.0156,276.5938 44.0156,274.8906 L44.0156,273.7969 C44.0156,272.0156 45.2656,270.7031 47,270.7031 C47.5781,270.7031 48.1875,270.8594 48.6563,271.1094 C49.1406,271.3906 49.3125,271.6094 49.4063,272.0156 C49.4688,272.4219 49.5,272.5469 49.6406,272.6719 C49.7813,272.8125 50.0156,272.9219 50.2344,272.9219 C50.5,272.9219 50.7656,272.7813 50.9375,272.5625 C51.0469,272.4063 51.0781,272.2188 51.0781,271.7969 L51.0781,270.375 C51.0781,269.9375 51.0625,269.8125 50.9688,269.6563 C50.8125,269.3906 50.5313,269.25 50.2344,269.25 C49.9375,269.25 49.7344,269.3438 49.5156,269.6563 L49.3438,269.5781 Z " fill="#000000"/><text fill="#000000" font-family="sans-serif" font-size="12" lengthAdjust="spacingAndGlyphs" textLength="66" x="61" y="278.0605">Application</text><line style="stroke:#A80036;stroke-width:1.5;" x1="33" x2="129" y1="289.9063" y2="289.9063"/><line style="stroke:#A80036;stroke-width:1.5;" x1="33" x2="129" y1="297.9063" y2="297.9063"/><!--MD5=[903f62440aff671e6bb973ea06b07fab]
class hk.edu.polyu.comp.comp2021.cvfs.controller.CVFSController--><rect codeLine="11" fill="#FEFECE" filter="url(#f1u1gkm9byw674)" height="48" id="hk.edu.polyu.comp.comp2021.cvfs.controller.CVFSController" style="stroke:#A80036;stroke-width:1.5;" width="122" x="1068" y="257.9063"/><ellipse cx="1083" cy="273.9063" fill="#ADD1B2" rx="11" ry="11" style="stroke:#A80036;stroke-width:1.0;"/><path d="M1085.3438,269.5781 C1084.4063,269.1406 1083.8125,269 1082.9375,269 C1080.3125,269 1078.3125,271.0781 1078.3125,273.7969 L1078.3125,274.9219 C1078.3125,277.5 1080.4219,279.3906 1083.3125,279.3906 C1084.5313,279.3906 1085.6875,279.0938 1086.4375,278.5469 C1087.0156,278.1406 1087.3438,277.6875 1087.3438,277.2969 C1087.3438,276.8438 1086.9531,276.4531 1086.4844,276.4531 C1086.2656,276.4531 1086.0625,276.5313 1085.875,276.7188 C1085.4219,277.2031 1085.4219,277.2031 1085.2344,277.2969 C1084.8125,277.5625 1084.125,277.6875 1083.3594,277.6875 C1081.3125,277.6875 1080.0156,276.5938 1080.0156,274.8906 L1080.0156,273.7969 C1080.0156,272.0156 1081.2656,270.7031 1083,270.7031 C1083.5781,270.7031 1084.1875,270.8594 1084.6563,271.1094 C1085.1406,271.3906 1085.3125,271.6094 1085.4063,272.0156 C1085.4688,272.4219 1085.5,272.5469 1085.6406,272.6719 C1085.7813,272.8125 1086.0156,272.9219 1086.2344,272.9219 C1086.5,272.9219 1086.7656,272.7813 1086.9375,272.5625 C1087.0469,272.4063 1087.0781,272.2188 1087.0781,271.7969 L1087.0781,270.375 C1087.0781,269.9375 1087.0625,269.8125 1086.9688,269.6563 C1086.8125,269.3906 1086.5313,269.25 1086.2344,269.25 C1085.9375,269.25 1085.7344,269.3438 1085.5156,269.6563 L1085.3438,269.5781 Z " fill="#000000"/><text fill="#000000" font-family="sans-serif" font-size="12" lengthAdjust="spacingAndGlyphs" textLength="90" x="1097" y="278.0605">CVFSController</text><line style="stroke:#A80036;stroke-width:1.5;" x1="1069" x2="1189" y1="289.9063" y2="289.9063"/><line style="stroke:#A80036;stroke-width:1.5;" x1="1069" x2="1189" y1="297.9063" y2="297.9063"/><!--MD5=[e645248e8edf495e22d19a8755571abf]
class hk.edu.polyu.comp.comp2021.cvfs.controller.CommandSwitch--><rect codeLine="19" fill="#FEFECE" filter="url(#f1u1gkm9byw674)" height="48" id="hk.edu.polyu.comp.comp2021.cvfs.controller.CommandSwitch" style="stroke:#A80036;stroke-width:1.5;" width="131" x="901.5" y="257.9063"/><ellipse cx="916.5" cy="273.9063" fill="#ADD1B2" rx="11" ry="11" style="stroke:#A80036;stroke-width:1.0;"/><path d="M918.8438,269.5781 C917.9063,269.1406 917.3125,269 916.4375,269 C913.8125,269 911.8125,271.0781 911.8125,273.7969 L911.8125,274.9219 C911.8125,277.5 913.9219,279.3906 916.8125,279.3906 C918.0313,279.3906 919.1875,279.0938 919.9375,278.5469 C920.5156,278.1406 920.8438,277.6875 920.8438,277.2969 C920.8438,276.8438 920.4531,276.4531 919.9844,276.4531 C919.7656,276.4531 919.5625,276.5313 919.375,276.7188 C918.9219,277.2031 918.9219,277.2031 918.7344,277.2969 C918.3125,277.5625 917.625,277.6875 916.8594,277.6875 C914.8125,277.6875 913.5156,276.5938 913.5156,274.8906 L913.5156,273.7969 C913.5156,272.0156 914.7656,270.7031 916.5,270.7031 C917.0781,270.7031 917.6875,270.8594 918.1563,271.1094 C918.6406,271.3906 918.8125,271.6094 918.9063,272.0156 C918.9688,272.4219 919,272.5469 919.1406,272.6719 C919.2813,272.8125 919.5156,272.9219 919.7344,272.9219 C920,272.9219 920.2656,272.7813 920.4375,272.5625 C920.5469,272.4063 920.5781,272.2188 920.5781,271.7969 L920.5781,270.375 C920.5781,269.9375 920.5625,269.8125 920.4688,269.6563 C920.3125,269.3906 920.0313,269.25 919.7344,269.25 C919.4375,269.25 919.2344,269.3438 919.0156,269.6563 L918.8438,269.5781 Z " fill="#000000"/><text fill="#000000" font-family="sans-serif" font-size="12" lengthAdjust="spacingAndGlyphs" textLength="99" x="930.5" y="278.0605">CommandSwitch</text><line style="stroke:#A80036;stroke-width:1.5;" x1="902.5" x2="1031.5" y1="289.9063" y2="289.9063"/><line style="stroke:#A80036;stroke-width:1.5;" x1="902.5" x2="1031.5" y1="297.9063" y2="297.9063"/><!--MD5=[fba307ddb94f6a9be62fc1ab8752b965]
class hk.edu.polyu.comp.comp2021.cvfs.controller.CommandType--><rect codeLine="27" fill="#FEFECE" filter="url(#f1u1gkm9byw674)" height="48" id="hk.edu.polyu.comp.comp2021.cvfs.controller.CommandType" style="stroke:#A80036;stroke-width:1.5;" width="122" x="744" y="257.9063"/><ellipse cx="759" cy="273.9063" fill="#EB937F" rx="11" ry="11" style="stroke:#A80036;stroke-width:1.0;"/><path d="M757.7969,274.7813 L759.25,274.7813 L759.25,274.8906 C759.25,275.2969 759.2813,275.4531 759.3594,275.6094 C759.5156,275.8594 759.7969,276.0156 760.0938,276.0156 C760.3438,276.0156 760.6094,275.875 760.7656,275.6563 C760.8906,275.5 760.9219,275.3438 760.9219,274.8906 L760.9219,272.9688 C760.9219,272.8125 760.9219,272.7656 760.9063,272.6094 C760.8438,272.1406 760.5313,271.8281 760.0781,271.8281 C759.8281,271.8281 759.5625,271.9688 759.3906,272.1875 C759.2813,272.3594 759.25,272.5156 759.25,272.9688 L759.25,273.0938 L757.7969,273.0938 L757.7969,270.6875 L761.7813,270.6875 L761.7813,271.5469 C761.7813,271.9531 761.8125,272.125 761.8906,272.2813 C762.0625,272.5313 762.3438,272.6875 762.625,272.6875 C762.8906,272.6875 763.1563,272.5469 763.3281,272.3281 C763.4375,272.1563 763.4688,272.0156 763.4688,271.5469 L763.4688,269 L755.8438,269 C755.4063,269 755.2813,269.0156 755.125,269.1094 C754.875,269.2656 754.7188,269.5625 754.7188,269.8438 C754.7188,270.125 754.8594,270.375 755.0781,270.5469 C755.2344,270.6563 755.4219,270.6875 755.8438,270.6875 L756.0938,270.6875 L756.0938,277.2031 L755.8438,277.2031 C755.4375,277.2031 755.2813,277.2188 755.125,277.3281 C754.875,277.5 754.7188,277.7656 754.7188,278.0625 C754.7188,278.3281 754.8594,278.5781 755.0781,278.7344 C755.2188,278.8594 755.4531,278.9063 755.8438,278.9063 L763.8438,278.9063 L763.8438,276.3281 C763.8438,275.8906 763.8125,275.75 763.7344,275.5938 C763.5625,275.3438 763.2813,275.1875 763,275.1875 C762.7344,275.1875 762.4688,275.2969 762.2969,275.5469 C762.1875,275.7031 762.1563,275.8438 762.1563,276.3281 L762.1563,277.2031 L757.7969,277.2031 L757.7969,274.7813 Z " fill="#000000"/><text fill="#000000" font-family="sans-serif" font-size="12" lengthAdjust="spacingAndGlyphs" textLength="90" x="773" y="278.0605">CommandType</text><line style="stroke:#A80036;stroke-width:1.5;" x1="745" x2="865" y1="289.9063" y2="289.9063"/><line style="stroke:#A80036;stroke-width:1.5;" x1="745" x2="865" y1="297.9063" y2="297.9063"/><!--MD5=[86dc11bc418358166defef822e26cd29]
class hk.edu.polyu.comp.comp2021.cvfs.controller.CVFSController.loggerParser--><rect fill="#FEFECE" filter="url(#f1u1gkm9byw674)" height="48" id="hk.edu.polyu.comp.comp2021.cvfs.controller.CVFSController.loggerParser" style="stroke:#A80036;stroke-width:1.5;" width="110" x="1074" y="403.9063"/><ellipse cx="1089" cy="419.9063" fill="#ADD1B2" rx="11" ry="11" style="stroke:#A80036;stroke-width:1.0;"/><path d="M1091.3438,415.5781 C1090.4063,415.1406 1089.8125,415 1088.9375,415 C1086.3125,415 1084.3125,417.0781 1084.3125,419.7969 L1084.3125,420.9219 C1084.3125,423.5 1086.4219,425.3906 1089.3125,425.3906 C1090.5313,425.3906 1091.6875,425.0938 1092.4375,424.5469 C1093.0156,424.1406 1093.3438,423.6875 1093.3438,423.2969 C1093.3438,422.8438 1092.9531,422.4531 1092.4844,422.4531 C1092.2656,422.4531 1092.0625,422.5313 1091.875,422.7188 C1091.4219,423.2031 1091.4219,423.2031 1091.2344,423.2969 C1090.8125,423.5625 1090.125,423.6875 1089.3594,423.6875 C1087.3125,423.6875 1086.0156,422.5938 1086.0156,420.8906 L1086.0156,419.7969 C1086.0156,418.0156 1087.2656,416.7031 1089,416.7031 C1089.5781,416.7031 1090.1875,416.8594 1090.6563,417.1094 C1091.1406,417.3906 1091.3125,417.6094 1091.4063,418.0156 C1091.4688,418.4219 1091.5,418.5469 1091.6406,418.6719 C1091.7813,418.8125 1092.0156,418.9219 1092.2344,418.9219 C1092.5,418.9219 1092.7656,418.7813 1092.9375,418.5625 C1093.0469,418.4063 1093.0781,418.2188 1093.0781,417.7969 L1093.0781,416.375 C1093.0781,415.9375 1093.0625,415.8125 1092.9688,415.6563 C1092.8125,415.3906 1092.5313,415.25 1092.2344,415.25 C1091.9375,415.25 1091.7344,415.3438 1091.5156,415.6563 L1091.3438,415.5781 Z " fill="#000000"/><text fill="#000000" font-family="sans-serif" font-size="12" lengthAdjust="spacingAndGlyphs" textLength="78" x="1103" y="424.0605">loggerParser</text><line style="stroke:#A80036;stroke-width:1.5;" x1="1075" x2="1183" y1="435.9063" y2="435.9063"/><line style="stroke:#A80036;stroke-width:1.5;" x1="1075" x2="1183" y1="443.9063" y2="443.9063"/><!--MD5=[74a770d2c68349d42930b37d56e7d026]
class hk.edu.polyu.comp.comp2021.cvfs.model.BinCri--><rect codeLine="35" fill="#FEFECE" filter="url(#f1u1gkm9byw674)" height="48" id="hk.edu.polyu.comp.comp2021.cvfs.model.BinCri" style="stroke:#A80036;stroke-width:1.5;" width="66" x="207" y="403.9063"/><ellipse cx="222" cy="419.9063" fill="#ADD1B2" rx="11" ry="11" style="stroke:#A80036;stroke-width:1.0;"/><path d="M224.3438,415.5781 C223.4063,415.1406 222.8125,415 221.9375,415 C219.3125,415 217.3125,417.0781 217.3125,419.7969 L217.3125,420.9219 C217.3125,423.5 219.4219,425.3906 222.3125,425.3906 C223.5313,425.3906 224.6875,425.0938 225.4375,424.5469 C226.0156,424.1406 226.3438,423.6875 226.3438,423.2969 C226.3438,422.8438 225.9531,422.4531 225.4844,422.4531 C225.2656,422.4531 225.0625,422.5313 224.875,422.7188 C224.4219,423.2031 224.4219,423.2031 224.2344,423.2969 C223.8125,423.5625 223.125,423.6875 222.3594,423.6875 C220.3125,423.6875 219.0156,422.5938 219.0156,420.8906 L219.0156,419.7969 C219.0156,418.0156 220.2656,416.7031 222,416.7031 C222.5781,416.7031 223.1875,416.8594 223.6563,417.1094 C224.1406,417.3906 224.3125,417.6094 224.4063,418.0156 C224.4688,418.4219 224.5,418.5469 224.6406,418.6719 C224.7813,418.8125 225.0156,418.9219 225.2344,418.9219 C225.5,418.9219 225.7656,418.7813 225.9375,418.5625 C226.0469,418.4063 226.0781,418.2188 226.0781,417.7969 L226.0781,416.375 C226.0781,415.9375 226.0625,415.8125 225.9688,415.6563 C225.8125,415.3906 225.5313,415.25 225.2344,415.25 C224.9375,415.25 224.7344,415.3438 224.5156,415.6563 L224.3438,415.5781 Z " fill="#000000"/><text fill="#000000" font-family="sans-serif" font-size="12" lengthAdjust="spacingAndGlyphs" textLength="34" x="236" y="424.0605">BinCri</text><line style="stroke:#A80036;stroke-width:1.5;" x1="208" x2="272" y1="435.9063" y2="435.9063"/><line style="stroke:#A80036;stroke-width:1.5;" x1="208" x2="272" y1="443.9063" y2="443.9063"/><!--MD5=[84c8db9f80977187d8e9b2cf4b2613b2]
class hk.edu.polyu.comp.comp2021.cvfs.model.CVFS--><rect codeLine="43" fill="#FEFECE" filter="url(#f1u1gkm9byw674)" height="48" id="hk.edu.polyu.comp.comp2021.cvfs.model.CVFS" style="stroke:#A80036;stroke-width:1.5;" width="63" x="476.5" y="403.9063"/><ellipse cx="491.5" cy="419.9063" fill="#ADD1B2" rx="11" ry="11" style="stroke:#A80036;stroke-width:1.0;"/><path d="M493.8438,415.5781 C492.9063,415.1406 492.3125,415 491.4375,415 C488.8125,415 486.8125,417.0781 486.8125,419.7969 L486.8125,420.9219 C486.8125,423.5 488.9219,425.3906 491.8125,425.3906 C493.0313,425.3906 494.1875,425.0938 494.9375,424.5469 C495.5156,424.1406 495.8438,423.6875 495.8438,423.2969 C495.8438,422.8438 495.4531,422.4531 494.9844,422.4531 C494.7656,422.4531 494.5625,422.5313 494.375,422.7188 C493.9219,423.2031 493.9219,423.2031 493.7344,423.2969 C493.3125,423.5625 492.625,423.6875 491.8594,423.6875 C489.8125,423.6875 488.5156,422.5938 488.5156,420.8906 L488.5156,419.7969 C488.5156,418.0156 489.7656,416.7031 491.5,416.7031 C492.0781,416.7031 492.6875,416.8594 493.1563,417.1094 C493.6406,417.3906 493.8125,417.6094 493.9063,418.0156 C493.9688,418.4219 494,418.5469 494.1406,418.6719 C494.2813,418.8125 494.5156,418.9219 494.7344,418.9219 C495,418.9219 495.2656,418.7813 495.4375,418.5625 C495.5469,418.4063 495.5781,418.2188 495.5781,417.7969 L495.5781,416.375 C495.5781,415.9375 495.5625,415.8125 495.4688,415.6563 C495.3125,415.3906 495.0313,415.25 494.7344,415.25 C494.4375,415.25 494.2344,415.3438 494.0156,415.6563 L493.8438,415.5781 Z " fill="#000000"/><text fill="#000000" font-family="sans-serif" font-size="12" lengthAdjust="spacingAndGlyphs" textLength="31" x="505.5" y="424.0605">CVFS</text><line style="stroke:#A80036;stroke-width:1.5;" x1="477.5" x2="538.5" y1="435.9063" y2="435.9063"/><line style="stroke:#A80036;stroke-width:1.5;" x1="477.5" x2="538.5" y1="443.9063" y2="443.9063"/><!--MD5=[bc399127d49609d2aa55269950e5c30f]
class hk.edu.polyu.comp.comp2021.cvfs.model.Criterion--><rect codeLine="51" fill="#FEFECE" filter="url(#f1u1gkm9byw674)" height="48" id="hk.edu.polyu.comp.comp2021.cvfs.model.Criterion" style="stroke:#A80036;stroke-width:1.5;" width="83" x="309.5" y="257.9063"/><ellipse cx="324.5" cy="273.9063" fill="#ADD1B2" rx="11" ry="11" style="stroke:#A80036;stroke-width:1.0;"/><path d="M326.8438,269.5781 C325.9063,269.1406 325.3125,269 324.4375,269 C321.8125,269 319.8125,271.0781 319.8125,273.7969 L319.8125,274.9219 C319.8125,277.5 321.9219,279.3906 324.8125,279.3906 C326.0313,279.3906 327.1875,279.0938 327.9375,278.5469 C328.5156,278.1406 328.8438,277.6875 328.8438,277.2969 C328.8438,276.8438 328.4531,276.4531 327.9844,276.4531 C327.7656,276.4531 327.5625,276.5313 327.375,276.7188 C326.9219,277.2031 326.9219,277.2031 326.7344,277.2969 C326.3125,277.5625 325.625,277.6875 324.8594,277.6875 C322.8125,277.6875 321.5156,276.5938 321.5156,274.8906 L321.5156,273.7969 C321.5156,272.0156 322.7656,270.7031 324.5,270.7031 C325.0781,270.7031 325.6875,270.8594 326.1563,271.1094 C326.6406,271.3906 326.8125,271.6094 326.9063,272.0156 C326.9688,272.4219 327,272.5469 327.1406,272.6719 C327.2813,272.8125 327.5156,272.9219 327.7344,272.9219 C328,272.9219 328.2656,272.7813 328.4375,272.5625 C328.5469,272.4063 328.5781,272.2188 328.5781,271.7969 L328.5781,270.375 C328.5781,269.9375 328.5625,269.8125 328.4688,269.6563 C328.3125,269.3906 328.0313,269.25 327.7344,269.25 C327.4375,269.25 327.2344,269.3438 327.0156,269.6563 L326.8438,269.5781 Z " fill="#000000"/><text fill="#000000" font-family="sans-serif" font-size="12" lengthAdjust="spacingAndGlyphs" textLength="51" x="338.5" y="278.0605">Criterion</text><line style="stroke:#A80036;stroke-width:1.5;" x1="310.5" x2="391.5" y1="289.9063" y2="289.9063"/><line style="stroke:#A80036;stroke-width:1.5;" x1="310.5" x2="391.5" y1="297.9063" y2="297.9063"/><!--MD5=[54b3f871add4c38e0fbe458132a0f77e]
class hk.edu.polyu.comp.comp2021.cvfs.model.Directory--><rect codeLine="59" fill="#FEFECE" filter="url(#f1u1gkm9byw674)" height="48" id="hk.edu.polyu.comp.comp2021.cvfs.model.Directory" style="stroke:#A80036;stroke-width:1.5;" width="88" x="283" y="530.9063"/><ellipse cx="298" cy="546.9063" fill="#ADD1B2" rx="11" ry="11" style="stroke:#A80036;stroke-width:1.0;"/><path d="M300.3438,542.5781 C299.4063,542.1406 298.8125,542 297.9375,542 C295.3125,542 293.3125,544.0781 293.3125,546.7969 L293.3125,547.9219 C293.3125,550.5 295.4219,552.3906 298.3125,552.3906 C299.5313,552.3906 300.6875,552.0938 301.4375,551.5469 C302.0156,551.1406 302.3438,550.6875 302.3438,550.2969 C302.3438,549.8438 301.9531,549.4531 301.4844,549.4531 C301.2656,549.4531 301.0625,549.5313 300.875,549.7188 C300.4219,550.2031 300.4219,550.2031 300.2344,550.2969 C299.8125,550.5625 299.125,550.6875 298.3594,550.6875 C296.3125,550.6875 295.0156,549.5938 295.0156,547.8906 L295.0156,546.7969 C295.0156,545.0156 296.2656,543.7031 298,543.7031 C298.5781,543.7031 299.1875,543.8594 299.6563,544.1094 C300.1406,544.3906 300.3125,544.6094 300.4063,545.0156 C300.4688,545.4219 300.5,545.5469 300.6406,545.6719 C300.7813,545.8125 301.0156,545.9219 301.2344,545.9219 C301.5,545.9219 301.7656,545.7813 301.9375,545.5625 C302.0469,545.4063 302.0781,545.2188 302.0781,544.7969 L302.0781,543.375 C302.0781,542.9375 302.0625,542.8125 301.9688,542.6563 C301.8125,542.3906 301.5313,542.25 301.2344,542.25 C300.9375,542.25 300.7344,542.3438 300.5156,542.6563 L300.3438,542.5781 Z " fill="#000000"/><text fill="#000000" font-family="sans-serif" font-size="12" lengthAdjust="spacingAndGlyphs" textLength="56" x="312" y="551.0605">Directory</text><line style="stroke:#A80036;stroke-width:1.5;" x1="284" x2="370" y1="562.9063" y2="562.9063"/><line style="stroke:#A80036;stroke-width:1.5;" x1="284" x2="370" y1="570.9063" y2="570.9063"/><!--MD5=[2a4e27626544907d3573024a58a1465f]
class hk.edu.polyu.comp.comp2021.cvfs.model.Disk--><rect codeLine="67" fill="#FEFECE" filter="url(#f1u1gkm9byw674)" height="48" id="hk.edu.polyu.comp.comp2021.cvfs.model.Disk" style="stroke:#A80036;stroke-width:1.5;" width="58" x="436" y="639.9063"/><ellipse cx="451" cy="655.9063" fill="#ADD1B2" rx="11" ry="11" style="stroke:#A80036;stroke-width:1.0;"/><path d="M453.3438,651.5781 C452.4063,651.1406 451.8125,651 450.9375,651 C448.3125,651 446.3125,653.0781 446.3125,655.7969 L446.3125,656.9219 C446.3125,659.5 448.4219,661.3906 451.3125,661.3906 C452.5313,661.3906 453.6875,661.0938 454.4375,660.5469 C455.0156,660.1406 455.3438,659.6875 455.3438,659.2969 C455.3438,658.8438 454.9531,658.4531 454.4844,658.4531 C454.2656,658.4531 454.0625,658.5313 453.875,658.7188 C453.4219,659.2031 453.4219,659.2031 453.2344,659.2969 C452.8125,659.5625 452.125,659.6875 451.3594,659.6875 C449.3125,659.6875 448.0156,658.5938 448.0156,656.8906 L448.0156,655.7969 C448.0156,654.0156 449.2656,652.7031 451,652.7031 C451.5781,652.7031 452.1875,652.8594 452.6563,653.1094 C453.1406,653.3906 453.3125,653.6094 453.4063,654.0156 C453.4688,654.4219 453.5,654.5469 453.6406,654.6719 C453.7813,654.8125 454.0156,654.9219 454.2344,654.9219 C454.5,654.9219 454.7656,654.7813 454.9375,654.5625 C455.0469,654.4063 455.0781,654.2188 455.0781,653.7969 L455.0781,652.375 C455.0781,651.9375 455.0625,651.8125 454.9688,651.6563 C454.8125,651.3906 454.5313,651.25 454.2344,651.25 C453.9375,651.25 453.7344,651.3438 453.5156,651.6563 L453.3438,651.5781 Z " fill="#000000"/><text fill="#000000" font-family="sans-serif" font-size="12" lengthAdjust="spacingAndGlyphs" textLength="26" x="465" y="660.0605">Disk</text><line style="stroke:#A80036;stroke-width:1.5;" x1="437" x2="493" y1="671.9063" y2="671.9063"/><line style="stroke:#A80036;stroke-width:1.5;" x1="437" x2="493" y1="679.9063" y2="679.9063"/><!--MD5=[59417e6b571dd915c8b4723d76884586]
class hk.edu.polyu.comp.comp2021.cvfs.model.DocType--><rect codeLine="75" fill="#FEFECE" filter="url(#f1u1gkm9byw674)" height="48" id="hk.edu.polyu.comp.comp2021.cvfs.model.DocType" style="stroke:#A80036;stroke-width:1.5;" width="86" x="162" y="530.9063"/><ellipse cx="177" cy="546.9063" fill="#EB937F" rx="11" ry="11" style="stroke:#A80036;stroke-width:1.0;"/><path d="M175.7969,547.7813 L177.25,547.7813 L177.25,547.8906 C177.25,548.2969 177.2813,548.4531 177.3594,548.6094 C177.5156,548.8594 177.7969,549.0156 178.0938,549.0156 C178.3438,549.0156 178.6094,548.875 178.7656,548.6563 C178.8906,548.5 178.9219,548.3438 178.9219,547.8906 L178.9219,545.9688 C178.9219,545.8125 178.9219,545.7656 178.9063,545.6094 C178.8438,545.1406 178.5313,544.8281 178.0781,544.8281 C177.8281,544.8281 177.5625,544.9688 177.3906,545.1875 C177.2813,545.3594 177.25,545.5156 177.25,545.9688 L177.25,546.0938 L175.7969,546.0938 L175.7969,543.6875 L179.7813,543.6875 L179.7813,544.5469 C179.7813,544.9531 179.8125,545.125 179.8906,545.2813 C180.0625,545.5313 180.3438,545.6875 180.625,545.6875 C180.8906,545.6875 181.1563,545.5469 181.3281,545.3281 C181.4375,545.1563 181.4688,545.0156 181.4688,544.5469 L181.4688,542 L173.8438,542 C173.4063,542 173.2813,542.0156 173.125,542.1094 C172.875,542.2656 172.7188,542.5625 172.7188,542.8438 C172.7188,543.125 172.8594,543.375 173.0781,543.5469 C173.2344,543.6563 173.4219,543.6875 173.8438,543.6875 L174.0938,543.6875 L174.0938,550.2031 L173.8438,550.2031 C173.4375,550.2031 173.2813,550.2188 173.125,550.3281 C172.875,550.5 172.7188,550.7656 172.7188,551.0625 C172.7188,551.3281 172.8594,551.5781 173.0781,551.7344 C173.2188,551.8594 173.4531,551.9063 173.8438,551.9063 L181.8438,551.9063 L181.8438,549.3281 C181.8438,548.8906 181.8125,548.75 181.7344,548.5938 C181.5625,548.3438 181.2813,548.1875 181,548.1875 C180.7344,548.1875 180.4688,548.2969 180.2969,548.5469 C180.1875,548.7031 180.1563,548.8438 180.1563,549.3281 L180.1563,550.2031 L175.7969,550.2031 L175.7969,547.7813 Z " fill="#000000"/><text fill="#000000" font-family="sans-serif" font-size="12" lengthAdjust="spacingAndGlyphs" textLength="54" x="191" y="551.0605">DocType</text><line style="stroke:#A80036;stroke-width:1.5;" x1="163" x2="247" y1="562.9063" y2="562.9063"/><line style="stroke:#A80036;stroke-width:1.5;" x1="163" x2="247" y1="570.9063" y2="570.9063"/><!--MD5=[ad170b11a3d39ed1c8ac00e414f410e1]
class hk.edu.polyu.comp.comp2021.cvfs.model.Document--><rect codeLine="83" fill="#FEFECE" filter="url(#f1u1gkm9byw674)" height="48" id="hk.edu.polyu.comp.comp2021.cvfs.model.Document" style="stroke:#A80036;stroke-width:1.5;" width="93" x="308.5" y="403.9063"/><ellipse cx="323.5" cy="419.9063" fill="#ADD1B2" rx="11" ry="11" style="stroke:#A80036;stroke-width:1.0;"/><path d="M325.8438,415.5781 C324.9063,415.1406 324.3125,415 323.4375,415 C320.8125,415 318.8125,417.0781 318.8125,419.7969 L318.8125,420.9219 C318.8125,423.5 320.9219,425.3906 323.8125,425.3906 C325.0313,425.3906 326.1875,425.0938 326.9375,424.5469 C327.5156,424.1406 327.8438,423.6875 327.8438,423.2969 C327.8438,422.8438 327.4531,422.4531 326.9844,422.4531 C326.7656,422.4531 326.5625,422.5313 326.375,422.7188 C325.9219,423.2031 325.9219,423.2031 325.7344,423.2969 C325.3125,423.5625 324.625,423.6875 323.8594,423.6875 C321.8125,423.6875 320.5156,422.5938 320.5156,420.8906 L320.5156,419.7969 C320.5156,418.0156 321.7656,416.7031 323.5,416.7031 C324.0781,416.7031 324.6875,416.8594 325.1563,417.1094 C325.6406,417.3906 325.8125,417.6094 325.9063,418.0156 C325.9688,418.4219 326,418.5469 326.1406,418.6719 C326.2813,418.8125 326.5156,418.9219 326.7344,418.9219 C327,418.9219 327.2656,418.7813 327.4375,418.5625 C327.5469,418.4063 327.5781,418.2188 327.5781,417.7969 L327.5781,416.375 C327.5781,415.9375 327.5625,415.8125 327.4688,415.6563 C327.3125,415.3906 327.0313,415.25 326.7344,415.25 C326.4375,415.25 326.2344,415.3438 326.0156,415.6563 L325.8438,415.5781 Z " fill="#000000"/><text fill="#000000" font-family="sans-serif" font-size="12" lengthAdjust="spacingAndGlyphs" textLength="61" x="337.5" y="424.0605">Document</text><line style="stroke:#A80036;stroke-width:1.5;" x1="309.5" x2="400.5" y1="435.9063" y2="435.9063"/><line style="stroke:#A80036;stroke-width:1.5;" x1="309.5" x2="400.5" y1="443.9063" y2="443.9063"/><!--MD5=[0a76a1ace45b89a1900ac2cec77f0926]
class hk.edu.polyu.comp.comp2021.cvfs.model.TraceLogger--><rect codeLine="91" fill="#FEFECE" filter="url(#f1u1gkm9byw674)" height="48" id="hk.edu.polyu.comp.comp2021.cvfs.model.TraceLogger" style="stroke:#A80036;stroke-width:1.5;" width="109" x="165.5" y="257.9063"/><ellipse cx="180.5" cy="273.9063" fill="#ADD1B2" rx="11" ry="11" style="stroke:#A80036;stroke-width:1.0;"/><path d="M182.8438,269.5781 C181.9063,269.1406 181.3125,269 180.4375,269 C177.8125,269 175.8125,271.0781 175.8125,273.7969 L175.8125,274.9219 C175.8125,277.5 177.9219,279.3906 180.8125,279.3906 C182.0313,279.3906 183.1875,279.0938 183.9375,278.5469 C184.5156,278.1406 184.8438,277.6875 184.8438,277.2969 C184.8438,276.8438 184.4531,276.4531 183.9844,276.4531 C183.7656,276.4531 183.5625,276.5313 183.375,276.7188 C182.9219,277.2031 182.9219,277.2031 182.7344,277.2969 C182.3125,277.5625 181.625,277.6875 180.8594,277.6875 C178.8125,277.6875 177.5156,276.5938 177.5156,274.8906 L177.5156,273.7969 C177.5156,272.0156 178.7656,270.7031 180.5,270.7031 C181.0781,270.7031 181.6875,270.8594 182.1563,271.1094 C182.6406,271.3906 182.8125,271.6094 182.9063,272.0156 C182.9688,272.4219 183,272.5469 183.1406,272.6719 C183.2813,272.8125 183.5156,272.9219 183.7344,272.9219 C184,272.9219 184.2656,272.7813 184.4375,272.5625 C184.5469,272.4063 184.5781,272.2188 184.5781,271.7969 L184.5781,270.375 C184.5781,269.9375 184.5625,269.8125 184.4688,269.6563 C184.3125,269.3906 184.0313,269.25 183.7344,269.25 C183.4375,269.25 183.2344,269.3438 183.0156,269.6563 L182.8438,269.5781 Z " fill="#000000"/><text fill="#000000" font-family="sans-serif" font-size="12" lengthAdjust="spacingAndGlyphs" textLength="77" x="194.5" y="278.0605">TraceLogger</text><line style="stroke:#A80036;stroke-width:1.5;" x1="166.5" x2="273.5" y1="289.9063" y2="289.9063"/><line style="stroke:#A80036;stroke-width:1.5;" x1="166.5" x2="273.5" y1="297.9063" y2="297.9063"/><!--MD5=[7c94c4d73a0a590ab7ad39bcb806e63d]
class hk.edu.polyu.comp.comp2021.cvfs.model.Unit--><rect codeLine="99" fill="#FEFECE" filter="url(#f1u1gkm9byw674)" height="48" id="hk.edu.polyu.comp.comp2021.cvfs.model.Unit" style="stroke:#A80036;stroke-width:1.5;" width="57" x="427.5" y="257.9063"/><ellipse cx="442.5" cy="273.9063" fill="#A9DCDF" rx="11" ry="11" style="stroke:#A80036;stroke-width:1.0;"/><path d="M444.5781,275.7188 L444.9688,276.7031 L444.5781,276.7031 C444.125,276.7031 444.0156,276.7188 443.8594,276.8281 C443.6094,276.9844 443.4531,277.2656 443.4531,277.5625 C443.4531,277.8281 443.5938,278.0781 443.8125,278.2344 C443.9531,278.3594 444.1563,278.4063 444.5781,278.4063 L446.9375,278.4063 C447.2969,278.4063 447.5156,278.375 447.6563,278.2813 C447.9063,278.1406 448.0625,277.8438 448.0625,277.5625 C448.0625,277.2813 447.9219,277.0313 447.7031,276.875 C447.5313,276.7344 447.375,276.7031 446.9063,276.7031 L443.5156,268.5 L439.8438,268.5 C439.3906,268.5 439.2656,268.5156 439.1094,268.6094 C438.8594,268.7813 438.7031,269.0625 438.7031,269.3438 C438.7031,269.625 438.8438,269.875 439.0625,270.0469 C439.2344,270.1563 439.4063,270.1875 439.8438,270.1875 L440.9219,270.1875 L438.2813,276.7031 C437.8594,276.7031 437.7031,276.7188 437.5469,276.8281 C437.2969,276.9844 437.1406,277.2656 437.1406,277.5625 C437.1406,278.125 437.5156,278.4063 438.2656,278.4063 L440.5313,278.4063 C440.8906,278.4063 441.1094,278.375 441.2344,278.2813 C441.5,278.1406 441.6406,277.8438 441.6406,277.5625 C441.6406,277.2813 441.5156,277.0313 441.2969,276.8594 C441.125,276.7344 440.9844,276.7031 440.5313,276.7031 L440.1406,276.7031 L440.5313,275.7188 L444.5781,275.7188 Z M443.875,274.0156 L441.2031,274.0156 L442.5469,270.75 L443.875,274.0156 Z " fill="#000000"/><text fill="#000000" font-family="sans-serif" font-size="12" font-style="italic" lengthAdjust="spacingAndGlyphs" textLength="25" x="456.5" y="278.0605">Unit</text><line style="stroke:#A80036;stroke-width:1.5;" x1="428.5" x2="483.5" y1="289.9063" y2="289.9063"/><line style="stroke:#A80036;stroke-width:1.5;" x1="428.5" x2="483.5" y1="297.9063" y2="297.9063"/><!--MD5=[401291756678c251497818224a612585]
class hk.edu.polyu.comp.comp2021.cvfs.view.CVFSView--><rect codeLine="107" fill="#FEFECE" filter="url(#f1u1gkm9byw674)" height="48" id="hk.edu.polyu.comp.comp2021.cvfs.view.CVFSView" style="stroke:#A80036;stroke-width:1.5;" width="92" x="596" y="403.9063"/><ellipse cx="611" cy="419.9063" fill="#ADD1B2" rx="11" ry="11" style="stroke:#A80036;stroke-width:1.0;"/><path d="M613.3438,415.5781 C612.4063,415.1406 611.8125,415 610.9375,415 C608.3125,415 606.3125,417.0781 606.3125,419.7969 L606.3125,420.9219 C606.3125,423.5 608.4219,425.3906 611.3125,425.3906 C612.5313,425.3906 613.6875,425.0938 614.4375,424.5469 C615.0156,424.1406 615.3438,423.6875 615.3438,423.2969 C615.3438,422.8438 614.9531,422.4531 614.4844,422.4531 C614.2656,422.4531 614.0625,422.5313 613.875,422.7188 C613.4219,423.2031 613.4219,423.2031 613.2344,423.2969 C612.8125,423.5625 612.125,423.6875 611.3594,423.6875 C609.3125,423.6875 608.0156,422.5938 608.0156,420.8906 L608.0156,419.7969 C608.0156,418.0156 609.2656,416.7031 611,416.7031 C611.5781,416.7031 612.1875,416.8594 612.6563,417.1094 C613.1406,417.3906 613.3125,417.6094 613.4063,418.0156 C613.4688,418.4219 613.5,418.5469 613.6406,418.6719 C613.7813,418.8125 614.0156,418.9219 614.2344,418.9219 C614.5,418.9219 614.7656,418.7813 614.9375,418.5625 C615.0469,418.4063 615.0781,418.2188 615.0781,417.7969 L615.0781,416.375 C615.0781,415.9375 615.0625,415.8125 614.9688,415.6563 C614.8125,415.3906 614.5313,415.25 614.2344,415.25 C613.9375,415.25 613.7344,415.3438 613.5156,415.6563 L613.3438,415.5781 Z " fill="#000000"/><text fill="#000000" font-family="sans-serif" font-size="12" lengthAdjust="spacingAndGlyphs" textLength="60" x="625" y="424.0605">CVFSView</text><line style="stroke:#A80036;stroke-width:1.5;" x1="597" x2="687" y1="435.9063" y2="435.9063"/><line style="stroke:#A80036;stroke-width:1.5;" x1="597" x2="687" y1="443.9063" y2="443.9063"/><!--MD5=[e928e726d300d3bec07862808e5ce117]
class java.lang.Cloneable--><rect fill="#FEFECE" filter="url(#f1u1gkm9byw674)" height="48" id="java.lang.Cloneable" style="stroke:#A80036;stroke-width:1.5;" width="92" x="269" y="82.9063"/><ellipse cx="284" cy="98.9063" fill="#ADD1B2" rx="11" ry="11" style="stroke:#A80036;stroke-width:1.0;"/><path d="M286.3438,94.5781 C285.4063,94.1406 284.8125,94 283.9375,94 C281.3125,94 279.3125,96.0781 279.3125,98.7969 L279.3125,99.9219 C279.3125,102.5 281.4219,104.3906 284.3125,104.3906 C285.5313,104.3906 286.6875,104.0938 287.4375,103.5469 C288.0156,103.1406 288.3438,102.6875 288.3438,102.2969 C288.3438,101.8438 287.9531,101.4531 287.4844,101.4531 C287.2656,101.4531 287.0625,101.5313 286.875,101.7188 C286.4219,102.2031 286.4219,102.2031 286.2344,102.2969 C285.8125,102.5625 285.125,102.6875 284.3594,102.6875 C282.3125,102.6875 281.0156,101.5938 281.0156,99.8906 L281.0156,98.7969 C281.0156,97.0156 282.2656,95.7031 284,95.7031 C284.5781,95.7031 285.1875,95.8594 285.6563,96.1094 C286.1406,96.3906 286.3125,96.6094 286.4063,97.0156 C286.4688,97.4219 286.5,97.5469 286.6406,97.6719 C286.7813,97.8125 287.0156,97.9219 287.2344,97.9219 C287.5,97.9219 287.7656,97.7813 287.9375,97.5625 C288.0469,97.4063 288.0781,97.2188 288.0781,96.7969 L288.0781,95.375 C288.0781,94.9375 288.0625,94.8125 287.9688,94.6563 C287.8125,94.3906 287.5313,94.25 287.2344,94.25 C286.9375,94.25 286.7344,94.3438 286.5156,94.6563 L286.3438,94.5781 Z " fill="#000000"/><text fill="#000000" font-family="sans-serif" font-size="12" lengthAdjust="spacingAndGlyphs" textLength="60" x="298" y="103.0605">Cloneable</text><line style="stroke:#A80036;stroke-width:1.5;" x1="270" x2="360" y1="114.9063" y2="114.9063"/><line style="stroke:#A80036;stroke-width:1.5;" x1="270" x2="360" y1="122.9063" y2="122.9063"/><!--MD5=[5a5af9b0547913863cbe0ddf55a9ab5e]
class java.io.Serializable--><rect fill="#FEFECE" filter="url(#f1u1gkm9byw674)" height="48" id="java.io.Serializable" style="stroke:#A80036;stroke-width:1.5;" width="102" x="417" y="82.9063"/><ellipse cx="432" cy="98.9063" fill="#ADD1B2" rx="11" ry="11" style="stroke:#A80036;stroke-width:1.0;"/><path d="M434.3438,94.5781 C433.4063,94.1406 432.8125,94 431.9375,94 C429.3125,94 427.3125,96.0781 427.3125,98.7969 L427.3125,99.9219 C427.3125,102.5 429.4219,104.3906 432.3125,104.3906 C433.5313,104.3906 434.6875,104.0938 435.4375,103.5469 C436.0156,103.1406 436.3438,102.6875 436.3438,102.2969 C436.3438,101.8438 435.9531,101.4531 435.4844,101.4531 C435.2656,101.4531 435.0625,101.5313 434.875,101.7188 C434.4219,102.2031 434.4219,102.2031 434.2344,102.2969 C433.8125,102.5625 433.125,102.6875 432.3594,102.6875 C430.3125,102.6875 429.0156,101.5938 429.0156,99.8906 L429.0156,98.7969 C429.0156,97.0156 430.2656,95.7031 432,95.7031 C432.5781,95.7031 433.1875,95.8594 433.6563,96.1094 C434.1406,96.3906 434.3125,96.6094 434.4063,97.0156 C434.4688,97.4219 434.5,97.5469 434.6406,97.6719 C434.7813,97.8125 435.0156,97.9219 435.2344,97.9219 C435.5,97.9219 435.7656,97.7813 435.9375,97.5625 C436.0469,97.4063 436.0781,97.2188 436.0781,96.7969 L436.0781,95.375 C436.0781,94.9375 436.0625,94.8125 435.9688,94.6563 C435.8125,94.3906 435.5313,94.25 435.2344,94.25 C434.9375,94.25 434.7344,94.3438 434.5156,94.6563 L434.3438,94.5781 Z " fill="#000000"/><text fill="#000000" font-family="sans-serif" font-size="12" lengthAdjust="spacingAndGlyphs" textLength="70" x="446" y="103.0605">Serializable</text><line style="stroke:#A80036;stroke-width:1.5;" x1="418" x2="518" y1="114.9063" y2="114.9063"/><line style="stroke:#A80036;stroke-width:1.5;" x1="418" x2="518" y1="122.9063" y2="122.9063"/><!--MD5=[be2704c9bcf83bc995c296100f68c841]
reverse link hk.edu.polyu.comp.comp2021.cvfs.controller.CVFSController to hk.edu.polyu.comp.comp2021.cvfs.model.CVFS--><path codeLine="113" d="M1054.89,304.9353 C1053.25,305.2773 1051.62,305.6013 1050,305.9063 C843.325,344.8643 768.216,267.0613 580,360.9063 C559.361,371.1963 540.331,389.1803 527.025,403.7793 " fill="none" id="hk.edu.polyu.comp.comp2021.cvfs.controller.CVFSController-backto-hk.edu.polyu.comp.comp2021.cvfs.model.CVFS" style="stroke:#A80036;stroke-width:1.0;"/><polygon fill="#FFFFFF" points="1067.61,302.0303,1060.8689,299.4695,1055.9124,304.7071,1062.6535,307.2679,1067.61,302.0303" style="stroke:#A80036;stroke-width:1.0;"/><text fill="#000000" font-family="sans-serif" font-size="13" lengthAdjust="spacingAndGlyphs" textLength="27" x="635" y="348.9731">cvfs</text><!--MD5=[88a7a9ef11a64fbfe99a316697e24592]
reverse link hk.edu.polyu.comp.comp2021.cvfs.controller.CVFSController to hk.edu.polyu.comp.comp2021.cvfs.controller.CVFSController.loggerParser--><path codeLine="114" d="M1129,319.3993 C1129,345.9413 1129,381.0703 1129,403.8273 " fill="none" id="hk.edu.polyu.comp.comp2021.cvfs.controller.CVFSController-backto-hk.edu.polyu.comp.comp2021.cvfs.controller.CVFSController.loggerParser" style="stroke:#A80036;stroke-width:1.0;"/><polygon fill="#FFFFFF" points="1129,306.0423,1125,312.0423,1129,318.0423,1133,312.0423,1129,306.0423" style="stroke:#A80036;stroke-width:1.0;"/><text fill="#000000" font-family="sans-serif" font-size="13" lengthAdjust="spacingAndGlyphs" textLength="40" x="1130" y="348.9731">logger</text><!--MD5=[1a2b294069c70e3668f0e97bf1ffacc8]
reverse link hk.edu.polyu.comp.comp2021.cvfs.controller.CVFSController to hk.edu.polyu.comp.comp2021.cvfs.view.CVFSView--><path codeLine="115" d="M1055.26,304.6633 C1053.49,305.0913 1051.74,305.5063 1050,305.9063 C908.516,338.4733 861.042,302.7853 728,360.9063 C704.545,371.1533 681.739,389.1393 665.513,403.7503 " fill="none" id="hk.edu.polyu.comp.comp2021.cvfs.controller.CVFSController-backto-hk.edu.polyu.comp.comp2021.cvfs.view.CVFSView" style="stroke:#A80036;stroke-width:1.0;"/><polygon fill="#FFFFFF" points="1067.94,301.4313,1061.1399,299.0316,1056.3094,304.3857,1063.1095,306.7854,1067.94,301.4313" style="stroke:#A80036;stroke-width:1.0;"/><text fill="#000000" font-family="sans-serif" font-size="13" lengthAdjust="spacingAndGlyphs" textLength="30" x="799" y="348.9731">view</text><!--MD5=[36d668a986f61341b26a0cee1e11fc4b]
reverse link hk.edu.polyu.comp.comp2021.cvfs.model.Criterion to hk.edu.polyu.comp.comp2021.cvfs.model.BinCri--><path codeLine="116" d="M311.285,320.3373 C306.608,325.3973 302.061,330.6573 298,335.9063 C292.636,342.8393 292.608,345.4493 288,352.9063 C277.373,370.1013 264.944,389.2383 255.396,403.7423 " fill="none" id="hk.edu.polyu.comp.comp2021.cvfs.model.Criterion-backto-hk.edu.polyu.comp.comp2021.cvfs.model.BinCri" style="stroke:#A80036;stroke-width:1.0;"/><polygon fill="none" points="306.359,315.3623,325.355,305.9733,316.361,325.1593,306.359,315.3623" style="stroke:#A80036;stroke-width:1.0;"/><!--MD5=[302f0c00a3acbff89fdabbb3c8c80b83]
reverse link hk.edu.polyu.comp.comp2021.cvfs.model.BinCri to hk.edu.polyu.comp.comp2021.cvfs.model.Criterion--><path codeLine="117" d="M265.352,393.2813 C273.419,382.8043 282.466,371.2813 291,360.9063 C294.001,357.2573 295.017,356.5693 298,352.9063 C310.513,337.5403 323.985,319.7293 334.215,305.9193 " fill="none" id="hk.edu.polyu.comp.comp2021.cvfs.model.BinCri-backto-hk.edu.polyu.comp.comp2021.cvfs.model.Criterion" style="stroke:#A80036;stroke-width:1.0;"/><polygon fill="#FFFFFF" points="257.363,403.7283,264.1851,401.3919,264.6524,394.1959,257.8302,396.5323,257.363,403.7283" style="stroke:#A80036;stroke-width:1.0;"/><text fill="#000000" font-family="sans-serif" font-size="13" lengthAdjust="spacingAndGlyphs" textLength="23" x="313" y="348.9731">cri1</text><!--MD5=[302f0c00a3acbff89fdabbb3c8c80b83]
reverse link hk.edu.polyu.comp.comp2021.cvfs.model.BinCri to hk.edu.polyu.comp.comp2021.cvfs.model.Criterion--><path codeLine="118" d="M238.803,390.6723 C239.893,372.7633 243.867,351.6713 255,335.9063 C262.138,325.7983 286.783,312.2883 309.313,301.4393 " fill="none" id="hk.edu.polyu.comp.comp2021.cvfs.model.BinCri-backto-hk.edu.polyu.comp.comp2021.cvfs.model.Criterion-1" style="stroke:#A80036;stroke-width:1.0;"/><polygon fill="#FFFFFF" points="238.464,403.8963,242.6163,398.0006,238.7713,391.9002,234.6189,397.7958,238.464,403.8963" style="stroke:#A80036;stroke-width:1.0;"/><text fill="#000000" font-family="sans-serif" font-size="13" lengthAdjust="spacingAndGlyphs" textLength="23" x="256" y="348.9731">cri2</text><!--MD5=[96878f8267e8c7622d71d6d11f326e6d]
reverse link hk.edu.polyu.comp.comp2021.cvfs.model.CVFS to hk.edu.polyu.comp.comp2021.cvfs.model.Directory--><path codeLine="119" d="M481.215,462.3253 C469.526,475.4803 455.059,490.0123 440,500.9063 C419.02,516.0833 393.004,528.6403 371.225,537.7153 " fill="none" id="hk.edu.polyu.comp.comp2021.cvfs.model.CVFS-backto-hk.edu.polyu.comp.comp2021.cvfs.model.Directory" style="stroke:#A80036;stroke-width:1.0;"/><polygon fill="#FFFFFF" points="489.952,452.1663,483.007,454.1072,482.1275,461.2645,489.0725,459.3235,489.952,452.1663" style="stroke:#A80036;stroke-width:1.0;"/><text fill="#000000" font-family="sans-serif" font-size="13" lengthAdjust="spacingAndGlyphs" textLength="26" x="460" y="496.9731">cwd</text><!--MD5=[f5fb40c855999c3a6905ddf46b2e83fc]
reverse link hk.edu.polyu.comp.comp2021.cvfs.model.CVFS to hk.edu.polyu.comp.comp2021.cvfs.model.Disk--><path codeLine="120" d="M501.562,464.7453 C499.479,476.2913 497.151,489.1413 495,500.9063 C485.944,550.4263 475.16,608.4273 469.305,639.8413 " fill="none" id="hk.edu.polyu.comp.comp2021.cvfs.model.CVFS-backto-hk.edu.polyu.comp.comp2021.cvfs.model.Disk" style="stroke:#A80036;stroke-width:1.0;"/><polygon fill="#FFFFFF" points="503.869,451.9333,498.8688,457.1292,501.742,463.7432,506.7422,458.5472,503.869,451.9333" style="stroke:#A80036;stroke-width:1.0;"/><text fill="#000000" font-family="sans-serif" font-size="13" lengthAdjust="spacingAndGlyphs" textLength="25" x="491" y="559.4731">disk</text><!--MD5=[7a94ab8748d8e4ad450632475e8923f4]
reverse link java.lang.Cloneable to hk.edu.polyu.comp.comp2021.cvfs.model.Criterion--><path codeLine="121" d="M323.951,150.9203 C330.979,184.6933 340.494,230.4213 346.164,257.6683 " fill="none" id="java.lang.Cloneable-backto-hk.edu.polyu.comp.comp2021.cvfs.model.Criterion" style="stroke:#A80036;stroke-width:1.0;stroke-dasharray:7.0,7.0;"/><polygon fill="none" points="317.077,152.2442,319.855,131.2383,330.783,149.3923,317.077,152.2442" style="stroke:#A80036;stroke-width:1.0;"/><!--MD5=[5e96a2537e08d5e88ca03f1648740dfb]
reverse link hk.edu.polyu.comp.comp2021.cvfs.model.Unit to hk.edu.polyu.comp.comp2021.cvfs.model.Directory--><path codeLine="122" d="M454.691,326.2023 C451.892,366.8973 443.526,428.4733 419,475.9063 C407.266,498.5993 385.822,517.3773 366.587,530.8193 " fill="none" id="hk.edu.polyu.comp.comp2021.cvfs.model.Unit-backto-hk.edu.polyu.comp.comp2021.cvfs.model.Directory" style="stroke:#A80036;stroke-width:1.0;"/><polygon fill="none" points="447.714,325.5763,455.741,305.9653,461.696,326.3013,447.714,325.5763" style="stroke:#A80036;stroke-width:1.0;"/><!--MD5=[1273231bf20ef54dba3b532b553a0b14]
reverse link hk.edu.polyu.comp.comp2021.cvfs.model.Directory to hk.edu.polyu.comp.comp2021.cvfs.model.Directory--><path codeLine="123" d="M384.608,545.0873 C397.013,546.0563 406,549.3293 406,554.9063 C406,562.3423 390.023,565.6823 371.269,564.9273 " fill="none" id="hk.edu.polyu.comp.comp2021.cvfs.model.Directory-backto-hk.edu.polyu.comp.comp2021.cvfs.model.Directory" style="stroke:#A80036;stroke-width:1.0;"/><polygon fill="#FFFFFF" points="371.269,544.8853,377.2081,548.9751,383.2676,545.0659,377.3285,540.976,371.269,544.8853" style="stroke:#A80036;stroke-width:1.0;"/><text fill="#000000" font-family="sans-serif" font-size="13" lengthAdjust="spacingAndGlyphs" textLength="42" x="412" y="559.4731">parent</text><!--MD5=[21edc9730b2bb15521baa47c7aced90b]
reverse link hk.edu.polyu.comp.comp2021.cvfs.model.Directory to hk.edu.polyu.comp.comp2021.cvfs.model.Disk--><path codeLine="124" d="M373.015,591.5853 C393.657,607.5893 417.397,625.9963 435.589,640.1012 " fill="none" id="hk.edu.polyu.comp.comp2021.cvfs.model.Directory-backto-hk.edu.polyu.comp.comp2021.cvfs.model.Disk" style="stroke:#A80036;stroke-width:1.0;"/><polygon fill="none" points="368.46,596.9103,356.944,579.1233,377.039,585.8473,368.46,596.9103" style="stroke:#A80036;stroke-width:1.0;"/><!--MD5=[4e3e81cd0f77cc85493fff017a3c7bb3]
reverse link hk.edu.polyu.comp.comp2021.cvfs.model.Unit to hk.edu.polyu.comp.comp2021.cvfs.model.Document--><path codeLine="125" d="M428.058,322.7443 C409.759,348.8333 386.487,382.0143 371.187,403.8273 " fill="none" id="hk.edu.polyu.comp.comp2021.cvfs.model.Unit-backto-hk.edu.polyu.comp.comp2021.cvfs.model.Document" style="stroke:#A80036;stroke-width:1.0;"/><polygon fill="none" points="422.557,318.3963,439.773,306.0423,434.019,326.4363,422.557,318.3963" style="stroke:#A80036;stroke-width:1.0;"/><!--MD5=[8d2dd84550fdc4015a9a72dd25a38c31]
reverse link hk.edu.polyu.comp.comp2021.cvfs.model.Document to hk.edu.polyu.comp.comp2021.cvfs.model.Directory--><path codeLine="126" d="M346.938,464.8953 C342.185,486.1163 336.311,512.3413 332.173,530.8123 " fill="none" id="hk.edu.polyu.comp.comp2021.cvfs.model.Document-backto-hk.edu.polyu.comp.comp2021.cvfs.model.Directory" style="stroke:#A80036;stroke-width:1.0;"/><polygon fill="#FFFFFF" points="349.799,452.1253,344.5843,457.1059,347.1762,463.8351,352.3909,458.8545,349.799,452.1253" style="stroke:#A80036;stroke-width:1.0;"/><text fill="#000000" font-family="sans-serif" font-size="13" lengthAdjust="spacingAndGlyphs" textLength="42" x="344" y="496.9731">parent</text><!--MD5=[fefacf5d65d0a5ef636cd9233c3301dc]
reverse link hk.edu.polyu.comp.comp2021.cvfs.model.Document to hk.edu.polyu.comp.comp2021.cvfs.model.DocType--><path codeLine="127" d="M317.147,460.4503 C290.87,482.3483 256.454,511.0283 232.713,530.8123 " fill="none" id="hk.edu.polyu.comp.comp2021.cvfs.model.Document-backto-hk.edu.polyu.comp.comp2021.cvfs.model.DocType" style="stroke:#A80036;stroke-width:1.0;"/><polygon fill="#FFFFFF" points="327.138,452.1253,319.968,452.8941,317.92,459.8082,325.09,459.0394,327.138,452.1253" style="stroke:#A80036;stroke-width:1.0;"/><text fill="#000000" font-family="sans-serif" font-size="13" lengthAdjust="spacingAndGlyphs" textLength="29" x="290" y="496.9731">type</text><!--MD5=[770f28a0a808d6012707da1b0b029689]
reverse link java.io.Serializable to hk.edu.polyu.comp.comp2021.cvfs.model.Unit--><path codeLine="128" d="M464.983,151.4013 C462.644,185.1263 459.493,230.5503 457.612,257.6683 " fill="none" id="java.io.Serializable-backto-hk.edu.polyu.comp.comp2021.cvfs.model.Unit" style="stroke:#A80036;stroke-width:1.0;stroke-dasharray:7.0,7.0;"/><polygon fill="none" points="458.014,150.7052,466.382,131.2383,471.981,151.6743,458.014,150.7052" style="stroke:#A80036;stroke-width:1.0;"/><text fill="#888888" font-family="sans-serif" font-size="10" lengthAdjust="spacingAndGlyphs" textLength="0" x="1234" y="743.1885"/><text fill="#888888" font-family="sans-serif" font-size="10" lengthAdjust="spacingAndGlyphs" textLength="0" x="1234" y="754.8291"/><text fill="#888888" font-family="sans-serif" font-size="10" lengthAdjust="spacingAndGlyphs" textLength="645" x="589" y="766.4697">CVFS(Comp Virtual File System) Class Diagram proposed by Group 30: MAN Furui, WANG Meng, XING Shiji, ZHANG Yubo.</text><text fill="#888888" font-family="sans-serif" font-size="10" lengthAdjust="spacingAndGlyphs" textLength="565" x="669" y="778.1104">COMP2021 Object-Oriented Programming, Year 2020 Semester 1, The Hong Kong Polytechnic University.</text><!--MD5=[02e07a77e65351cdd21704278e478b29]
@startuml
title __COMP2021_GROUP_PROJECT's Class Diagram__\n

  namespace hk.edu.polyu.comp.comp2021.cvfs {
    class hk.edu.polyu.comp.comp2021.cvfs.Application {
    }
  }
  

  namespace hk.edu.polyu.comp.comp2021.cvfs {
    namespace controller {
      class hk.edu.polyu.comp.comp2021.cvfs.controller.CVFSController {
      }
    }
  }
  

  namespace hk.edu.polyu.comp.comp2021.cvfs {
    namespace controller {
      class hk.edu.polyu.comp.comp2021.cvfs.controller.CommandSwitch {
      }
    }
  }
  

  namespace hk.edu.polyu.comp.comp2021.cvfs {
    namespace controller {
      enum CommandType {
      }
    }
  }
  

  namespace hk.edu.polyu.comp.comp2021.cvfs {
    namespace model {
      class hk.edu.polyu.comp.comp2021.cvfs.model.BinCri {
      }
    }
  }
  

  namespace hk.edu.polyu.comp.comp2021.cvfs {
    namespace model {
      class hk.edu.polyu.comp.comp2021.cvfs.model.CVFS {
      }
    }
  }
  

  namespace hk.edu.polyu.comp.comp2021.cvfs {
    namespace model {
      class hk.edu.polyu.comp.comp2021.cvfs.model.Criterion {
      }
    }
  }
  

  namespace hk.edu.polyu.comp.comp2021.cvfs {
    namespace model {
      class hk.edu.polyu.comp.comp2021.cvfs.model.Directory {
      }
    }
  }
  

  namespace hk.edu.polyu.comp.comp2021.cvfs {
    namespace model {
      class hk.edu.polyu.comp.comp2021.cvfs.model.Disk {
      }
    }
  }
  

  namespace hk.edu.polyu.comp.comp2021.cvfs {
    namespace model {
      enum DocType {
      }
    }
  }
  

  namespace hk.edu.polyu.comp.comp2021.cvfs {
    namespace model {
      class hk.edu.polyu.comp.comp2021.cvfs.model.Document {
      }
    }
  }
  

  namespace hk.edu.polyu.comp.comp2021.cvfs {
    namespace model {
      class hk.edu.polyu.comp.comp2021.cvfs.model.TraceLogger {
      }
    }
  }
  

  namespace hk.edu.polyu.comp.comp2021.cvfs {
    namespace model {
      abstract class hk.edu.polyu.comp.comp2021.cvfs.model.Unit {
      }
    }
  }
  

  namespace hk.edu.polyu.comp.comp2021.cvfs {
    namespace view {
      class hk.edu.polyu.comp.comp2021.cvfs.view.CVFSView {
      }
    }
  }
  

  hk.edu.polyu.comp.comp2021.cvfs.controller.CVFSController o- - hk.edu.polyu.comp.comp2021.cvfs.model.CVFS : cvfs
  hk.edu.polyu.comp.comp2021.cvfs.controller.CVFSController o- - hk.edu.polyu.comp.comp2021.cvfs.controller.CVFSController.loggerParser : logger
  hk.edu.polyu.comp.comp2021.cvfs.controller.CVFSController o- - hk.edu.polyu.comp.comp2021.cvfs.view.CVFSView : view
  hk.edu.polyu.comp.comp2021.cvfs.model.BinCri -up-|> hk.edu.polyu.comp.comp2021.cvfs.model.Criterion
  hk.edu.polyu.comp.comp2021.cvfs.model.BinCri o- - hk.edu.polyu.comp.comp2021.cvfs.model.Criterion : cri1
  hk.edu.polyu.comp.comp2021.cvfs.model.BinCri o- - hk.edu.polyu.comp.comp2021.cvfs.model.Criterion : cri2
  hk.edu.polyu.comp.comp2021.cvfs.model.CVFS o- - hk.edu.polyu.comp.comp2021.cvfs.model.Directory : cwd
  hk.edu.polyu.comp.comp2021.cvfs.model.CVFS o- - hk.edu.polyu.comp.comp2021.cvfs.model.Disk : disk
  hk.edu.polyu.comp.comp2021.cvfs.model.Criterion .up.|> java.lang.Cloneable
  hk.edu.polyu.comp.comp2021.cvfs.model.Directory -up-|> hk.edu.polyu.comp.comp2021.cvfs.model.Unit
  hk.edu.polyu.comp.comp2021.cvfs.model.Directory o- - hk.edu.polyu.comp.comp2021.cvfs.model.Directory : parent
  hk.edu.polyu.comp.comp2021.cvfs.model.Disk -up-|> hk.edu.polyu.comp.comp2021.cvfs.model.Directory
  hk.edu.polyu.comp.comp2021.cvfs.model.Document -up-|> hk.edu.polyu.comp.comp2021.cvfs.model.Unit
  hk.edu.polyu.comp.comp2021.cvfs.model.Document o- - hk.edu.polyu.comp.comp2021.cvfs.model.Directory : parent
  hk.edu.polyu.comp.comp2021.cvfs.model.Document o- - hk.edu.polyu.comp.comp2021.cvfs.model.DocType : type
  hk.edu.polyu.comp.comp2021.cvfs.model.Unit .up.|> java.io.Serializable


right footer


CVFS(Comp Virtual File System) Class Diagram proposed by Group 30: MAN Furui, WANG Meng, XING Shiji, ZHANG Yubo.
COMP2021 Object-Oriented Programming, Year 2020 Semester 1, The Hong Kong Polytechnic University.
endfooter
@enduml

PlantUML version 1.2020.21beta7(Unknown compile time)
(GPL source distribution)
Java Runtime: Java(TM) SE Runtime Environment
JVM: Java HotSpot(TM) 64-Bit Server VM
Default Encoding: UTF-8
Language: en
Country: US
--></g></svg>