<?xml version="1.0" encoding="UTF-8" standalone="no"?><svg xmlns="http://www.w3.org/2000/svg" xmlns:xlink="http://www.w3.org/1999/xlink" contentScriptType="application/ecmascript" contentStyleType="text/css" height="1166px" preserveAspectRatio="none" style="width:681px;height:1166px;" version="1.1" viewBox="0 0 681 1166" width="681px" zoomAndPan="magnify"><defs><filter height="300%" id="f1d493yuza9l6r" width="300%" x="-1" y="-1"><feGaussianBlur result="blurOut" stdDeviation="2.0"/><feColorMatrix in="blurOut" result="blurOut2" type="matrix" values="0 0 0 0 0 0 0 0 0 0 0 0 0 0 0 0 0 0 .4 0"/><feOffset dx="4.0" dy="4.0" in="blurOut2" result="blurOut3"/><feBlend in="SourceGraphic" in2="blurOut3" mode="normal"/></filter></defs><g><text fill="#000000" font-family="sans-serif" font-size="18" lengthAdjust="spacingAndGlyphs" text-decoration="underline" textLength="414" x="127" y="16.708">COMP2021_GROUP_PROJECT's Class Diagram</text><text fill="#000000" font-family="sans-serif" font-size="18" lengthAdjust="spacingAndGlyphs" textLength="0" x="337" y="37.6611"/><!--MD5=[7696743e9eab3d07d0242f740cb8a12e]
cluster hk.edu.polyu.comp.comp2021.cvfs--><polygon fill="#FFFFFF" filter="url(#f1d493yuza9l6r)" points="16,47.9063,301,47.9063,308,70.2031,664,70.2031,664,1107.9063,16,1107.9063,16,47.9063" style="stroke:#000000;stroke-width:1.5;"/><line style="stroke:#000000;stroke-width:1.5;" x1="16" x2="308" y1="70.2031" y2="70.2031"/><text fill="#000000" font-family="sans-serif" font-size="14" font-weight="bold" lengthAdjust="spacingAndGlyphs" textLength="279" x="20" y="62.9014">hk.edu.polyu.comp.comp2021.cvfs</text><!--MD5=[2d52001ffc905d2795e553564b87a26a]
cluster hk.edu.polyu.comp.comp2021.cvfs.model--><polygon fill="#FFFFFF" filter="url(#f1d493yuza9l6r)" points="40,90.9063,95,90.9063,102,113.2031,640,113.2031,640,1083.9063,40,1083.9063,40,90.9063" style="stroke:#000000;stroke-width:1.5;"/><line style="stroke:#000000;stroke-width:1.5;" x1="40" x2="102" y1="113.2031" y2="113.2031"/><text fill="#000000" font-family="sans-serif" font-size="14" font-weight="bold" lengthAdjust="spacingAndGlyphs" textLength="49" x="44" y="105.9014">model</text><!--MD5=[7c94c4d73a0a590ab7ad39bcb806e63d]
class hk.edu.polyu.comp.comp2021.cvfs.model.Unit--><rect codeLine="5" fill="#FEFECE" filter="url(#f1d493yuza9l6r)" height="201.6563" id="hk.edu.polyu.comp.comp2021.cvfs.model.Unit" style="stroke:#A80036;stroke-width:1.5;" width="146" x="244" y="125.9063"/><ellipse cx="300.25" cy="141.9063" fill="#A9DCDF" rx="11" ry="11" style="stroke:#A80036;stroke-width:1.0;"/><path d="M302.3281,143.7188 L302.7188,144.7031 L302.3281,144.7031 C301.875,144.7031 301.7656,144.7188 301.6094,144.8281 C301.3594,144.9844 301.2031,145.2656 301.2031,145.5625 C301.2031,145.8281 301.3438,146.0781 301.5625,146.2344 C301.7031,146.3594 301.9063,146.4063 302.3281,146.4063 L304.6875,146.4063 C305.0469,146.4063 305.2656,146.375 305.4063,146.2813 C305.6563,146.1406 305.8125,145.8438 305.8125,145.5625 C305.8125,145.2813 305.6719,145.0313 305.4531,144.875 C305.2813,144.7344 305.125,144.7031 304.6563,144.7031 L301.2656,136.5 L297.5938,136.5 C297.1406,136.5 297.0156,136.5156 296.8594,136.6094 C296.6094,136.7813 296.4531,137.0625 296.4531,137.3438 C296.4531,137.625 296.5938,137.875 296.8125,138.0469 C296.9844,138.1563 297.1563,138.1875 297.5938,138.1875 L298.6719,138.1875 L296.0313,144.7031 C295.6094,144.7031 295.4531,144.7188 295.2969,144.8281 C295.0469,144.9844 294.8906,145.2656 294.8906,145.5625 C294.8906,146.125 295.2656,146.4063 296.0156,146.4063 L298.2813,146.4063 C298.6406,146.4063 298.8594,146.375 298.9844,146.2813 C299.25,146.1406 299.3906,145.8438 299.3906,145.5625 C299.3906,145.2813 299.2656,145.0313 299.0469,144.8594 C298.875,144.7344 298.7344,144.7031 298.2813,144.7031 L297.8906,144.7031 L298.2813,143.7188 L302.3281,143.7188 Z M301.625,142.0156 L298.9531,142.0156 L300.2969,138.75 L301.625,142.0156 Z " fill="#000000"/><text fill="#000000" font-family="sans-serif" font-size="12" font-style="italic" lengthAdjust="spacingAndGlyphs" textLength="25" x="320.75" y="146.0605">Unit</text><line style="stroke:#A80036;stroke-width:1.5;" x1="245" x2="389" y1="157.9063" y2="157.9063"/><polygon fill="none" points="255,163.9063,259,167.9063,255,171.9063,251,167.9063" style="stroke:#B38D22;stroke-width:1.0;"/><text fill="#000000" font-family="sans-serif" font-size="11" lengthAdjust="spacingAndGlyphs" text-decoration="underline" textLength="120" x="264" y="172.1167">SIZE_CONSTANT : int</text><rect fill="none" height="6" style="stroke:#C82930;stroke-width:1.0;" width="6" x="252" y="178.7109"/><text fill="#000000" font-family="sans-serif" font-size="11" lengthAdjust="spacingAndGlyphs" textLength="77" x="264" y="184.9214">name : String</text><rect fill="none" height="6" style="stroke:#C82930;stroke-width:1.0;" width="6" x="252" y="191.5156"/><text fill="#000000" font-family="sans-serif" font-size="11" lengthAdjust="spacingAndGlyphs" textLength="49" x="264" y="197.7261">size : int</text><line style="stroke:#A80036;stroke-width:1.5;" x1="245" x2="389" y1="204.3203" y2="204.3203"/><ellipse cx="255" cy="215.3203" fill="#84BE84" rx="3" ry="3" style="stroke:#038048;stroke-width:1.0;"/><text fill="#000000" font-family="sans-serif" font-size="11" lengthAdjust="spacingAndGlyphs" textLength="30" x="264" y="218.5308">Unit()</text><ellipse cx="255" cy="228.125" fill="#84BE84" rx="3" ry="3" style="stroke:#038048;stroke-width:1.0;"/><text fill="#000000" font-family="sans-serif" font-size="11" lengthAdjust="spacingAndGlyphs" textLength="59" x="264" y="231.3354">getLevel()</text><ellipse cx="255" cy="240.9297" fill="#84BE84" rx="3" ry="3" style="stroke:#038048;stroke-width:1.0;"/><text fill="#000000" font-family="sans-serif" font-size="11" lengthAdjust="spacingAndGlyphs" textLength="61" x="264" y="244.1401">getName()</text><ellipse cx="255" cy="253.7344" fill="#84BE84" rx="3" ry="3" style="stroke:#038048;stroke-width:1.0;"/><text fill="#000000" font-family="sans-serif" font-size="11" font-style="italic" lengthAdjust="spacingAndGlyphs" textLength="63" x="264" y="256.9448">getParent()</text><ellipse cx="255" cy="266.5391" fill="#84BE84" rx="3" ry="3" style="stroke:#038048;stroke-width:1.0;"/><text fill="#000000" font-family="sans-serif" font-size="11" lengthAdjust="spacingAndGlyphs" textLength="53" x="264" y="269.7495">getSize()</text><ellipse cx="255" cy="279.3438" fill="#84BE84" rx="3" ry="3" style="stroke:#038048;stroke-width:1.0;"/><text fill="#000000" font-family="sans-serif" font-size="11" lengthAdjust="spacingAndGlyphs" text-decoration="underline" textLength="79" x="264" y="282.5542">isValidName()</text><ellipse cx="255" cy="292.1484" fill="#84BE84" rx="3" ry="3" style="stroke:#038048;stroke-width:1.0;"/><text fill="#000000" font-family="sans-serif" font-size="11" lengthAdjust="spacingAndGlyphs" textLength="60" x="264" y="295.3589">setName()</text><ellipse cx="255" cy="304.9531" fill="#84BE84" rx="3" ry="3" style="stroke:#038048;stroke-width:1.0;"/><text fill="#000000" font-family="sans-serif" font-size="11" font-style="italic" lengthAdjust="spacingAndGlyphs" textLength="62" x="264" y="308.1636">setParent()</text><ellipse cx="255" cy="317.7578" fill="#84BE84" rx="3" ry="3" style="stroke:#038048;stroke-width:1.0;"/><text fill="#000000" font-family="sans-serif" font-size="11" lengthAdjust="spacingAndGlyphs" textLength="52" x="264" y="320.9683">setSize()</text><!--MD5=[54b3f871add4c38e0fbe458132a0f77e]
class hk.edu.polyu.comp.comp2021.cvfs.model.Directory--><rect codeLine="24" fill="#FEFECE" filter="url(#f1d493yuza9l6r)" height="304.0938" id="hk.edu.polyu.comp.comp2021.cvfs.model.Directory" style="stroke:#A80036;stroke-width:1.5;" width="278" x="153" y="590.9063"/><ellipse cx="259.75" cy="606.9063" fill="#ADD1B2" rx="11" ry="11" style="stroke:#A80036;stroke-width:1.0;"/><path d="M262.0938,602.5781 C261.1563,602.1406 260.5625,602 259.6875,602 C257.0625,602 255.0625,604.0781 255.0625,606.7969 L255.0625,607.9219 C255.0625,610.5 257.1719,612.3906 260.0625,612.3906 C261.2813,612.3906 262.4375,612.0938 263.1875,611.5469 C263.7656,611.1406 264.0938,610.6875 264.0938,610.2969 C264.0938,609.8438 263.7031,609.4531 263.2344,609.4531 C263.0156,609.4531 262.8125,609.5313 262.625,609.7188 C262.1719,610.2031 262.1719,610.2031 261.9844,610.2969 C261.5625,610.5625 260.875,610.6875 260.1094,610.6875 C258.0625,610.6875 256.7656,609.5938 256.7656,607.8906 L256.7656,606.7969 C256.7656,605.0156 258.0156,603.7031 259.75,603.7031 C260.3281,603.7031 260.9375,603.8594 261.4063,604.1094 C261.8906,604.3906 262.0625,604.6094 262.1563,605.0156 C262.2188,605.4219 262.25,605.5469 262.3906,605.6719 C262.5313,605.8125 262.7656,605.9219 262.9844,605.9219 C263.25,605.9219 263.5156,605.7813 263.6875,605.5625 C263.7969,605.4063 263.8281,605.2188 263.8281,604.7969 L263.8281,603.375 C263.8281,602.9375 263.8125,602.8125 263.7188,602.6563 C263.5625,602.3906 263.2813,602.25 262.9844,602.25 C262.6875,602.25 262.4844,602.3438 262.2656,602.6563 L262.0938,602.5781 Z " fill="#000000"/><text fill="#000000" font-family="sans-serif" font-size="12" lengthAdjust="spacingAndGlyphs" textLength="56" x="280.25" y="611.0605">Directory</text><line style="stroke:#A80036;stroke-width:1.5;" x1="154" x2="430" y1="622.9063" y2="622.9063"/><rect fill="none" height="6" style="stroke:#C82930;stroke-width:1.0;" width="6" x="161" y="630.9063"/><text fill="#000000" font-family="sans-serif" font-size="11" lengthAdjust="spacingAndGlyphs" textLength="155" x="173" y="637.1167">catalog : Map&lt;String, Unit&gt;</text><rect fill="none" height="6" style="stroke:#C82930;stroke-width:1.0;" width="6" x="161" y="643.7109"/><text fill="#000000" font-family="sans-serif" font-size="11" lengthAdjust="spacingAndGlyphs" text-decoration="underline" textLength="175" x="173" y="649.9214">noFileWarningMessage : String</text><rect fill="none" height="6" style="stroke:#C82930;stroke-width:1.0;" width="6" x="161" y="656.5156"/><text fill="#000000" font-family="sans-serif" font-size="11" lengthAdjust="spacingAndGlyphs" text-decoration="underline" textLength="252" x="173" y="662.7261">unchangedRenameWarningMessage : String</text><line style="stroke:#A80036;stroke-width:1.5;" x1="154" x2="430" y1="669.3203" y2="669.3203"/><ellipse cx="164" cy="680.3203" fill="#84BE84" rx="3" ry="3" style="stroke:#038048;stroke-width:1.0;"/><text fill="#000000" font-family="sans-serif" font-size="11" lengthAdjust="spacingAndGlyphs" textLength="60" x="173" y="683.5308">Directory()</text><ellipse cx="164" cy="693.125" fill="#84BE84" rx="3" ry="3" style="stroke:#038048;stroke-width:1.0;"/><text fill="#000000" font-family="sans-serif" font-size="11" lengthAdjust="spacingAndGlyphs" textLength="46" x="173" y="696.3354">delete()</text><ellipse cx="164" cy="705.9297" fill="#84BE84" rx="3" ry="3" style="stroke:#038048;stroke-width:1.0;"/><text fill="#000000" font-family="sans-serif" font-size="11" lengthAdjust="spacingAndGlyphs" textLength="70" x="173" y="709.1401">getCatalog()</text><ellipse cx="164" cy="718.7344" fill="#84BE84" rx="3" ry="3" style="stroke:#038048;stroke-width:1.0;"/><text fill="#000000" font-family="sans-serif" font-size="11" lengthAdjust="spacingAndGlyphs" textLength="63" x="173" y="721.9448">getParent()</text><ellipse cx="164" cy="731.5391" fill="#84BE84" rx="3" ry="3" style="stroke:#038048;stroke-width:1.0;"/><text fill="#000000" font-family="sans-serif" font-size="11" lengthAdjust="spacingAndGlyphs" textLength="51" x="173" y="734.7495">getPath()</text><ellipse cx="164" cy="744.3438" fill="#84BE84" rx="3" ry="3" style="stroke:#038048;stroke-width:1.0;"/><text fill="#000000" font-family="sans-serif" font-size="11" lengthAdjust="spacingAndGlyphs" textLength="24" x="173" y="747.5542">list()</text><ellipse cx="164" cy="757.1484" fill="#84BE84" rx="3" ry="3" style="stroke:#038048;stroke-width:1.0;"/><text fill="#000000" font-family="sans-serif" font-size="11" lengthAdjust="spacingAndGlyphs" textLength="48" x="173" y="760.3589">newDir()</text><ellipse cx="164" cy="769.9531" fill="#84BE84" rx="3" ry="3" style="stroke:#038048;stroke-width:1.0;"/><text fill="#000000" font-family="sans-serif" font-size="11" lengthAdjust="spacingAndGlyphs" textLength="54" x="173" y="773.1636">newDoc()</text><ellipse cx="164" cy="782.7578" fill="#84BE84" rx="3" ry="3" style="stroke:#038048;stroke-width:1.0;"/><text fill="#000000" font-family="sans-serif" font-size="11" lengthAdjust="spacingAndGlyphs" textLength="31" x="173" y="785.9683">rList()</text><ellipse cx="164" cy="795.5625" fill="#84BE84" rx="3" ry="3" style="stroke:#038048;stroke-width:1.0;"/><text fill="#000000" font-family="sans-serif" font-size="11" lengthAdjust="spacingAndGlyphs" textLength="31" x="173" y="798.7729">rList()</text><ellipse cx="164" cy="808.3672" fill="#84BE84" rx="3" ry="3" style="stroke:#038048;stroke-width:1.0;"/><text fill="#000000" font-family="sans-serif" font-size="11" lengthAdjust="spacingAndGlyphs" textLength="52" x="173" y="811.5776">rSearch()</text><ellipse cx="164" cy="821.1719" fill="#84BE84" rx="3" ry="3" style="stroke:#038048;stroke-width:1.0;"/><text fill="#000000" font-family="sans-serif" font-size="11" lengthAdjust="spacingAndGlyphs" text-decoration="underline" textLength="52" x="173" y="824.3823">rSearch()</text><ellipse cx="164" cy="833.9766" fill="#84BE84" rx="3" ry="3" style="stroke:#038048;stroke-width:1.0;"/><text fill="#000000" font-family="sans-serif" font-size="11" lengthAdjust="spacingAndGlyphs" textLength="53" x="173" y="837.187">rename()</text><ellipse cx="164" cy="846.7813" fill="#84BE84" rx="3" ry="3" style="stroke:#038048;stroke-width:1.0;"/><text fill="#000000" font-family="sans-serif" font-size="11" lengthAdjust="spacingAndGlyphs" textLength="46" x="173" y="849.9917">search()</text><ellipse cx="164" cy="859.5859" fill="#84BE84" rx="3" ry="3" style="stroke:#038048;stroke-width:1.0;"/><text fill="#000000" font-family="sans-serif" font-size="11" lengthAdjust="spacingAndGlyphs" textLength="62" x="173" y="862.7964">setParent()</text><ellipse cx="164" cy="872.3906" fill="#84BE84" rx="3" ry="3" style="stroke:#038048;stroke-width:1.0;"/><text fill="#000000" font-family="sans-serif" font-size="11" lengthAdjust="spacingAndGlyphs" textLength="52" x="173" y="875.6011">toString()</text><ellipse cx="164" cy="885.1953" fill="#84BE84" rx="3" ry="3" style="stroke:#038048;stroke-width:1.0;"/><text fill="#000000" font-family="sans-serif" font-size="11" lengthAdjust="spacingAndGlyphs" textLength="89" x="173" y="888.4058">updateSizeBy()</text><!--MD5=[ad170b11a3d39ed1c8ac00e414f410e1]
class hk.edu.polyu.comp.comp2021.cvfs.model.Document--><rect codeLine="51" fill="#FEFECE" filter="url(#f1d493yuza9l6r)" height="124.8281" id="hk.edu.polyu.comp.comp2021.cvfs.model.Document" style="stroke:#A80036;stroke-width:1.5;" width="113" x="328.5" y="388.9063"/><ellipse cx="352.5" cy="404.9063" fill="#ADD1B2" rx="11" ry="11" style="stroke:#A80036;stroke-width:1.0;"/><path d="M354.8438,400.5781 C353.9063,400.1406 353.3125,400 352.4375,400 C349.8125,400 347.8125,402.0781 347.8125,404.7969 L347.8125,405.9219 C347.8125,408.5 349.9219,410.3906 352.8125,410.3906 C354.0313,410.3906 355.1875,410.0938 355.9375,409.5469 C356.5156,409.1406 356.8438,408.6875 356.8438,408.2969 C356.8438,407.8438 356.4531,407.4531 355.9844,407.4531 C355.7656,407.4531 355.5625,407.5313 355.375,407.7188 C354.9219,408.2031 354.9219,408.2031 354.7344,408.2969 C354.3125,408.5625 353.625,408.6875 352.8594,408.6875 C350.8125,408.6875 349.5156,407.5938 349.5156,405.8906 L349.5156,404.7969 C349.5156,403.0156 350.7656,401.7031 352.5,401.7031 C353.0781,401.7031 353.6875,401.8594 354.1563,402.1094 C354.6406,402.3906 354.8125,402.6094 354.9063,403.0156 C354.9688,403.4219 355,403.5469 355.1406,403.6719 C355.2813,403.8125 355.5156,403.9219 355.7344,403.9219 C356,403.9219 356.2656,403.7813 356.4375,403.5625 C356.5469,403.4063 356.5781,403.2188 356.5781,402.7969 L356.5781,401.375 C356.5781,400.9375 356.5625,400.8125 356.4688,400.6563 C356.3125,400.3906 356.0313,400.25 355.7344,400.25 C355.4375,400.25 355.2344,400.3438 355.0156,400.6563 L354.8438,400.5781 Z " fill="#000000"/><text fill="#000000" font-family="sans-serif" font-size="12" lengthAdjust="spacingAndGlyphs" textLength="61" x="368.5" y="409.0605">Document</text><line style="stroke:#A80036;stroke-width:1.5;" x1="329.5" x2="440.5" y1="420.9063" y2="420.9063"/><rect fill="none" height="6" style="stroke:#C82930;stroke-width:1.0;" width="6" x="336.5" y="428.9063"/><text fill="#000000" font-family="sans-serif" font-size="11" lengthAdjust="spacingAndGlyphs" textLength="87" x="348.5" y="435.1167">content : String</text><line style="stroke:#A80036;stroke-width:1.5;" x1="329.5" x2="440.5" y1="441.7109" y2="441.7109"/><ellipse cx="339.5" cy="452.7109" fill="#84BE84" rx="3" ry="3" style="stroke:#038048;stroke-width:1.0;"/><text fill="#000000" font-family="sans-serif" font-size="11" lengthAdjust="spacingAndGlyphs" textLength="67" x="348.5" y="455.9214">Document()</text><ellipse cx="339.5" cy="465.5156" fill="#84BE84" rx="3" ry="3" style="stroke:#038048;stroke-width:1.0;"/><text fill="#000000" font-family="sans-serif" font-size="11" lengthAdjust="spacingAndGlyphs" textLength="63" x="348.5" y="468.7261">getParent()</text><ellipse cx="339.5" cy="478.3203" fill="#84BE84" rx="3" ry="3" style="stroke:#038048;stroke-width:1.0;"/><text fill="#000000" font-family="sans-serif" font-size="11" lengthAdjust="spacingAndGlyphs" textLength="56" x="348.5" y="481.5308">getType()</text><ellipse cx="339.5" cy="491.125" fill="#84BE84" rx="3" ry="3" style="stroke:#038048;stroke-width:1.0;"/><text fill="#000000" font-family="sans-serif" font-size="11" lengthAdjust="spacingAndGlyphs" textLength="62" x="348.5" y="494.3354">setParent()</text><ellipse cx="339.5" cy="503.9297" fill="#84BE84" rx="3" ry="3" style="stroke:#038048;stroke-width:1.0;"/><text fill="#000000" font-family="sans-serif" font-size="11" lengthAdjust="spacingAndGlyphs" textLength="52" x="348.5" y="507.1401">toString()</text><!--MD5=[2a4e27626544907d3573024a58a1465f]
class hk.edu.polyu.comp.comp2021.cvfs.model.Disk--><rect codeLine="64" fill="#FEFECE" filter="url(#f1d493yuza9l6r)" height="112.0234" id="hk.edu.polyu.comp.comp2021.cvfs.model.Disk" style="stroke:#A80036;stroke-width:1.5;" width="115" x="100.5" y="955.9063"/><ellipse cx="141.15" cy="971.9063" fill="#ADD1B2" rx="11" ry="11" style="stroke:#A80036;stroke-width:1.0;"/><path d="M143.4938,967.5781 C142.5563,967.1406 141.9625,967 141.0875,967 C138.4625,967 136.4625,969.0781 136.4625,971.7969 L136.4625,972.9219 C136.4625,975.5 138.5719,977.3906 141.4625,977.3906 C142.6813,977.3906 143.8375,977.0938 144.5875,976.5469 C145.1656,976.1406 145.4938,975.6875 145.4938,975.2969 C145.4938,974.8438 145.1031,974.4531 144.6344,974.4531 C144.4156,974.4531 144.2125,974.5313 144.025,974.7188 C143.5719,975.2031 143.5719,975.2031 143.3844,975.2969 C142.9625,975.5625 142.275,975.6875 141.5094,975.6875 C139.4625,975.6875 138.1656,974.5938 138.1656,972.8906 L138.1656,971.7969 C138.1656,970.0156 139.4156,968.7031 141.15,968.7031 C141.7281,968.7031 142.3375,968.8594 142.8063,969.1094 C143.2906,969.3906 143.4625,969.6094 143.5563,970.0156 C143.6188,970.4219 143.65,970.5469 143.7906,970.6719 C143.9313,970.8125 144.1656,970.9219 144.3844,970.9219 C144.65,970.9219 144.9156,970.7813 145.0875,970.5625 C145.1969,970.4063 145.2281,970.2188 145.2281,969.7969 L145.2281,968.375 C145.2281,967.9375 145.2125,967.8125 145.1188,967.6563 C144.9625,967.3906 144.6813,967.25 144.3844,967.25 C144.0875,967.25 143.8844,967.3438 143.6656,967.6563 L143.4938,967.5781 Z " fill="#000000"/><text fill="#000000" font-family="sans-serif" font-size="12" lengthAdjust="spacingAndGlyphs" textLength="26" x="160.85" y="976.0605">Disk</text><line style="stroke:#A80036;stroke-width:1.5;" x1="101.5" x2="214.5" y1="987.9063" y2="987.9063"/><rect fill="none" height="6" style="stroke:#C82930;stroke-width:1.0;" width="6" x="108.5" y="995.9063"/><text fill="#000000" font-family="sans-serif" font-size="11" lengthAdjust="spacingAndGlyphs" textLength="72" x="120.5" y="1002.1167">capacity : int</text><line style="stroke:#A80036;stroke-width:1.5;" x1="101.5" x2="214.5" y1="1008.7109" y2="1008.7109"/><ellipse cx="111.5" cy="1019.7109" fill="#84BE84" rx="3" ry="3" style="stroke:#038048;stroke-width:1.0;"/><text fill="#000000" font-family="sans-serif" font-size="11" lengthAdjust="spacingAndGlyphs" textLength="32" x="120.5" y="1022.9214">Disk()</text><ellipse cx="111.5" cy="1032.5156" fill="#84BE84" rx="3" ry="3" style="stroke:#038048;stroke-width:1.0;"/><text fill="#000000" font-family="sans-serif" font-size="11" lengthAdjust="spacingAndGlyphs" textLength="76" x="120.5" y="1035.7261">getCapacity()</text><ellipse cx="111.5" cy="1045.3203" fill="#84BE84" rx="3" ry="3" style="stroke:#038048;stroke-width:1.0;"/><text fill="#000000" font-family="sans-serif" font-size="11" lengthAdjust="spacingAndGlyphs" textLength="51" x="120.5" y="1048.5308">getPath()</text><ellipse cx="111.5" cy="1058.125" fill="#84BE84" rx="3" ry="3" style="stroke:#038048;stroke-width:1.0;"/><text fill="#000000" font-family="sans-serif" font-size="11" lengthAdjust="spacingAndGlyphs" textLength="89" x="120.5" y="1061.3354">updateSizeBy()</text><!--MD5=[84c8db9f80977187d8e9b2cf4b2613b2]
class hk.edu.polyu.comp.comp2021.cvfs.model.CVFS--><rect fill="#FEFECE" filter="url(#f1d493yuza9l6r)" height="48" id="hk.edu.polyu.comp.comp2021.cvfs.model.CVFS" style="stroke:#A80036;stroke-width:1.5;" width="63" x="126.5" y="427.4063"/><ellipse cx="141.5" cy="443.4063" fill="#ADD1B2" rx="11" ry="11" style="stroke:#A80036;stroke-width:1.0;"/><path d="M143.8438,439.0781 C142.9063,438.6406 142.3125,438.5 141.4375,438.5 C138.8125,438.5 136.8125,440.5781 136.8125,443.2969 L136.8125,444.4219 C136.8125,447 138.9219,448.8906 141.8125,448.8906 C143.0313,448.8906 144.1875,448.5938 144.9375,448.0469 C145.5156,447.6406 145.8438,447.1875 145.8438,446.7969 C145.8438,446.3438 145.4531,445.9531 144.9844,445.9531 C144.7656,445.9531 144.5625,446.0313 144.375,446.2188 C143.9219,446.7031 143.9219,446.7031 143.7344,446.7969 C143.3125,447.0625 142.625,447.1875 141.8594,447.1875 C139.8125,447.1875 138.5156,446.0938 138.5156,444.3906 L138.5156,443.2969 C138.5156,441.5156 139.7656,440.2031 141.5,440.2031 C142.0781,440.2031 142.6875,440.3594 143.1563,440.6094 C143.6406,440.8906 143.8125,441.1094 143.9063,441.5156 C143.9688,441.9219 144,442.0469 144.1406,442.1719 C144.2813,442.3125 144.5156,442.4219 144.7344,442.4219 C145,442.4219 145.2656,442.2813 145.4375,442.0625 C145.5469,441.9063 145.5781,441.7188 145.5781,441.2969 L145.5781,439.875 C145.5781,439.4375 145.5625,439.3125 145.4688,439.1563 C145.3125,438.8906 145.0313,438.75 144.7344,438.75 C144.4375,438.75 144.2344,438.8438 144.0156,439.1563 L143.8438,439.0781 Z " fill="#000000"/><text fill="#000000" font-family="sans-serif" font-size="12" lengthAdjust="spacingAndGlyphs" textLength="31" x="155.5" y="447.5605">CVFS</text><line style="stroke:#A80036;stroke-width:1.5;" x1="127.5" x2="188.5" y1="459.4063" y2="459.4063"/><line style="stroke:#A80036;stroke-width:1.5;" x1="127.5" x2="188.5" y1="467.4063" y2="467.4063"/><!--MD5=[59417e6b571dd915c8b4723d76884586]
class hk.edu.polyu.comp.comp2021.cvfs.model.DocType--><rect fill="#FEFECE" filter="url(#f1d493yuza9l6r)" height="48" id="hk.edu.polyu.comp.comp2021.cvfs.model.DocType" style="stroke:#A80036;stroke-width:1.5;" width="86" x="538" y="718.9063"/><ellipse cx="553" cy="734.9063" fill="#ADD1B2" rx="11" ry="11" style="stroke:#A80036;stroke-width:1.0;"/><path d="M555.3438,730.5781 C554.4063,730.1406 553.8125,730 552.9375,730 C550.3125,730 548.3125,732.0781 548.3125,734.7969 L548.3125,735.9219 C548.3125,738.5 550.4219,740.3906 553.3125,740.3906 C554.5313,740.3906 555.6875,740.0938 556.4375,739.5469 C557.0156,739.1406 557.3438,738.6875 557.3438,738.2969 C557.3438,737.8438 556.9531,737.4531 556.4844,737.4531 C556.2656,737.4531 556.0625,737.5313 555.875,737.7188 C555.4219,738.2031 555.4219,738.2031 555.2344,738.2969 C554.8125,738.5625 554.125,738.6875 553.3594,738.6875 C551.3125,738.6875 550.0156,737.5938 550.0156,735.8906 L550.0156,734.7969 C550.0156,733.0156 551.2656,731.7031 553,731.7031 C553.5781,731.7031 554.1875,731.8594 554.6563,732.1094 C555.1406,732.3906 555.3125,732.6094 555.4063,733.0156 C555.4688,733.4219 555.5,733.5469 555.6406,733.6719 C555.7813,733.8125 556.0156,733.9219 556.2344,733.9219 C556.5,733.9219 556.7656,733.7813 556.9375,733.5625 C557.0469,733.4063 557.0781,733.2188 557.0781,732.7969 L557.0781,731.375 C557.0781,730.9375 557.0625,730.8125 556.9688,730.6563 C556.8125,730.3906 556.5313,730.25 556.2344,730.25 C555.9375,730.25 555.7344,730.3438 555.5156,730.6563 L555.3438,730.5781 Z " fill="#000000"/><text fill="#000000" font-family="sans-serif" font-size="12" lengthAdjust="spacingAndGlyphs" textLength="54" x="567" y="739.0605">DocType</text><line style="stroke:#A80036;stroke-width:1.5;" x1="539" x2="623" y1="750.9063" y2="750.9063"/><line style="stroke:#A80036;stroke-width:1.5;" x1="539" x2="623" y1="758.9063" y2="758.9063"/><!--MD5=[96878f8267e8c7622d71d6d11f326e6d]
reverse link hk.edu.polyu.comp.comp2021.cvfs.model.CVFS to hk.edu.polyu.comp.comp2021.cvfs.model.Directory--><path codeLine="74" d="M174.276,487.5703 C186.489,513.9543 204.122,552.0493 222.037,590.7553 " fill="none" id="hk.edu.polyu.comp.comp2021.cvfs.model.CVFS-backto-hk.edu.polyu.comp.comp2021.cvfs.model.Directory" style="stroke:#A80036;stroke-width:1.0;"/><polygon fill="#FFFFFF" points="168.739,475.6083,167.6291,482.7334,173.7792,486.4984,174.8892,479.3733,168.739,475.6083" style="stroke:#A80036;stroke-width:1.0;"/><text fill="#000000" font-family="sans-serif" font-size="13" lengthAdjust="spacingAndGlyphs" textLength="26" x="207" y="556.9731">cwd</text><!--MD5=[f5fb40c855999c3a6905ddf46b2e83fc]
reverse link hk.edu.polyu.comp.comp2021.cvfs.model.CVFS to hk.edu.polyu.comp.comp2021.cvfs.model.Disk--><path codeLine="75" d="M141.348,487.8212 C129.407,515.2633 114.352,554.6023 108,590.9063 C84.7122,723.9952 80.6962,762.5822 108,894.9063 C112.254,915.5242 120.349,936.9923 128.806,955.7713 " fill="none" id="hk.edu.polyu.comp.comp2021.cvfs.model.CVFS-backto-hk.edu.polyu.comp.comp2021.cvfs.model.Disk" style="stroke:#A80036;stroke-width:1.0;"/><polygon fill="#FFFFFF" points="146.74,475.7383,140.6419,479.587,141.8491,486.6963,147.9472,482.8476,146.74,475.7383" style="stroke:#A80036;stroke-width:1.0;"/><text fill="#000000" font-family="sans-serif" font-size="13" lengthAdjust="spacingAndGlyphs" textLength="25" x="109" y="747.4731">disk</text><!--MD5=[5e96a2537e08d5e88ca03f1648740dfb]
reverse link hk.edu.polyu.comp.comp2021.cvfs.model.Unit to hk.edu.polyu.comp.comp2021.cvfs.model.Directory--><path codeLine="76" d="M311.148,348.2313 C307.63,420.5483 303.123,513.2263 299.365,590.4923 " fill="none" id="hk.edu.polyu.comp.comp2021.cvfs.model.Unit-backto-hk.edu.polyu.comp.comp2021.cvfs.model.Directory" style="stroke:#A80036;stroke-width:1.0;"/><polygon fill="none" points="304.172,347.5613,312.135,327.9253,318.155,348.2423,304.172,347.5613" style="stroke:#A80036;stroke-width:1.0;"/><!--MD5=[1273231bf20ef54dba3b532b553a0b14]
reverse link hk.edu.polyu.comp.comp2021.cvfs.model.Directory to hk.edu.polyu.comp.comp2021.cvfs.model.Directory--><path codeLine="77" d="M443.814,715.9013 C457.443,721.5463 466,730.5483 466,742.9063 C466,758.7243 451.98,769.0433 431.25,773.8633 " fill="none" id="hk.edu.polyu.comp.comp2021.cvfs.model.Directory-backto-hk.edu.polyu.comp.comp2021.cvfs.model.Directory" style="stroke:#A80036;stroke-width:1.0;"/><polygon fill="#FFFFFF" points="431.25,711.9493,435.7729,717.5656,442.6968,715.5508,438.1739,709.9344,431.25,711.9493" style="stroke:#A80036;stroke-width:1.0;"/><text fill="#000000" font-family="sans-serif" font-size="13" lengthAdjust="spacingAndGlyphs" textLength="42" x="472" y="747.4731">parent</text><!--MD5=[21edc9730b2bb15521baa47c7aced90b]
reverse link hk.edu.polyu.comp.comp2021.cvfs.model.Directory to hk.edu.polyu.comp.comp2021.cvfs.model.Disk--><path codeLine="78" d="M207.097,913.0773 C199.461,928.2943 192.159,942.8433 185.63,955.8523 " fill="none" id="hk.edu.polyu.comp.comp2021.cvfs.model.Directory-backto-hk.edu.polyu.comp.comp2021.cvfs.model.Disk" style="stroke:#A80036;stroke-width:1.0;"/><polygon fill="none" points="200.962,909.6963,216.19,894.9613,213.475,915.9762,200.962,909.6963" style="stroke:#A80036;stroke-width:1.0;"/><!--MD5=[4e3e81cd0f77cc85493fff017a3c7bb3]
reverse link hk.edu.polyu.comp.comp2021.cvfs.model.Unit to hk.edu.polyu.comp.comp2021.cvfs.model.Document--><path codeLine="79" d="M353.553,347.5103 C357.9,361.7323 362.19,375.7703 366.138,388.6893 " fill="none" id="hk.edu.polyu.comp.comp2021.cvfs.model.Unit-backto-hk.edu.polyu.comp.comp2021.cvfs.model.Document" style="stroke:#A80036;stroke-width:1.0;"/><polygon fill="none" points="346.769,349.2632,347.618,328.0912,360.158,345.1722,346.769,349.2632" style="stroke:#A80036;stroke-width:1.0;"/><!--MD5=[8d2dd84550fdc4015a9a72dd25a38c31]
reverse link hk.edu.polyu.comp.comp2021.cvfs.model.Document to hk.edu.polyu.comp.comp2021.cvfs.model.Directory--><path codeLine="80" d="M361.117,526.7503 C354.788,546.4533 347.72,568.4563 340.586,590.6643 " fill="none" id="hk.edu.polyu.comp.comp2021.cvfs.model.Document-backto-hk.edu.polyu.comp.comp2021.cvfs.model.Directory" style="stroke:#A80036;stroke-width:1.0;"/><polygon fill="#FFFFFF" points="365.163,514.1563,359.5192,518.6449,361.4919,525.5809,367.1357,521.0923,365.163,514.1563" style="stroke:#A80036;stroke-width:1.0;"/><text fill="#000000" font-family="sans-serif" font-size="13" lengthAdjust="spacingAndGlyphs" textLength="42" x="355" y="556.9731">parent</text><!--MD5=[fefacf5d65d0a5ef636cd9233c3301dc]
reverse link hk.edu.polyu.comp.comp2021.cvfs.model.Document to hk.edu.polyu.comp.comp2021.cvfs.model.DocType--><path codeLine="81" d="M451.245,509.4322 C475.535,532.8393 501.761,561.3643 521,590.9063 C548.017,632.3913 566.19,687.9623 574.947,718.8093 " fill="none" id="hk.edu.polyu.comp.comp2021.cvfs.model.Document-backto-hk.edu.polyu.comp.comp2021.cvfs.model.DocType" style="stroke:#A80036;stroke-width:1.0;"/><polygon fill="#FFFFFF" points="441.695,500.3903,443.3021,507.42,450.4092,508.6403,448.8021,501.6105,441.695,500.3903" style="stroke:#A80036;stroke-width:1.0;"/><text fill="#000000" font-family="sans-serif" font-size="13" lengthAdjust="spacingAndGlyphs" textLength="29" x="496" y="556.9731">type</text><text fill="#888888" font-family="sans-serif" font-size="10" lengthAdjust="spacingAndGlyphs" textLength="0" x="668" y="1123.1885"/><text fill="#888888" font-family="sans-serif" font-size="10" lengthAdjust="spacingAndGlyphs" textLength="0" x="668" y="1134.8291"/><text fill="#888888" font-family="sans-serif" font-size="10" lengthAdjust="spacingAndGlyphs" textLength="645" x="23" y="1146.4697">CVFS(Comp Virtual File System) Class Diagram proposed by Group 30: MAN Furui, WANG Meng, XING Shiji, ZHANG Yubo.</text><text fill="#888888" font-family="sans-serif" font-size="10" lengthAdjust="spacingAndGlyphs" textLength="565" x="103" y="1158.1104">COMP2021 Object-Oriented Programming, Year 2020 Semester 1, The Hong Kong Polytechnic University.</text><!--MD5=[c8822ac128b5b9b3a149bfd938868e98]
@startuml
title __COMP2021_GROUP_PROJECT's Class Diagram__\n

  namespace hk.edu.polyu.comp.comp2021.cvfs {
    namespace model {
      abstract class hk.edu.polyu.comp.comp2021.cvfs.model.Unit {
          {static} # SIZE_CONSTANT : int
          - name : String
          - size : int
          + Unit()
          + getLevel()
          + getName()
          {abstract} + getParent()
          + getSize()
          {static} + isValidName()
          + setName()
          {abstract} + setParent()
          + setSize()
      }
    }
  }
  
  namespace hk.edu.polyu.comp.comp2021.cvfs {
    namespace model {
      class hk.edu.polyu.comp.comp2021.cvfs.model.Directory {
          - catalog : Map<String, Unit>
          {static} - noFileWarningMessage : String
          {static} - unchangedRenameWarningMessage : String
          + Directory()
          + delete()
          + getCatalog()
          + getParent()
          + getPath()
          + list()
          + newDir()
          + newDoc()
          + rList()
          + rList()
          + rSearch()
          {static} + rSearch()
          + rename()
          + search()
          + setParent()
          + toString()
          + updateSizeBy()
      }
    }
  }
  
  namespace hk.edu.polyu.comp.comp2021.cvfs {
    namespace model {
      class hk.edu.polyu.comp.comp2021.cvfs.model.Document {
          - content : String
          + Document()
          + getParent()
          + getType()
          + setParent()
          + toString()
      }
    }
  }
  
  namespace hk.edu.polyu.comp.comp2021.cvfs {
    namespace model {
      class hk.edu.polyu.comp.comp2021.cvfs.model.Disk {
          - capacity : int
          + Disk()
          + getCapacity()
          + getPath()
          + updateSizeBy()
      }
    }
  }
  
  hk.edu.polyu.comp.comp2021.cvfs.model.CVFS o- - hk.edu.polyu.comp.comp2021.cvfs.model.Directory : cwd
  hk.edu.polyu.comp.comp2021.cvfs.model.CVFS o- - hk.edu.polyu.comp.comp2021.cvfs.model.Disk : disk
  hk.edu.polyu.comp.comp2021.cvfs.model.Directory -up-|> hk.edu.polyu.comp.comp2021.cvfs.model.Unit
  hk.edu.polyu.comp.comp2021.cvfs.model.Directory o- - hk.edu.polyu.comp.comp2021.cvfs.model.Directory : parent
  hk.edu.polyu.comp.comp2021.cvfs.model.Disk -up-|> hk.edu.polyu.comp.comp2021.cvfs.model.Directory
  hk.edu.polyu.comp.comp2021.cvfs.model.Document -up-|> hk.edu.polyu.comp.comp2021.cvfs.model.Unit
  hk.edu.polyu.comp.comp2021.cvfs.model.Document o- - hk.edu.polyu.comp.comp2021.cvfs.model.Directory : parent
  hk.edu.polyu.comp.comp2021.cvfs.model.Document o- - hk.edu.polyu.comp.comp2021.cvfs.model.DocType : type


right footer


CVFS(Comp Virtual File System) Class Diagram proposed by Group 30: MAN Furui, WANG Meng, XING Shiji, ZHANG Yubo.
COMP2021 Object-Oriented Programming, Year 2020 Semester 1, The Hong Kong Polytechnic University.
endfooter
@enduml

PlantUML version 1.2020.21beta7(Unknown compile time)
(GPL source distribution)
Java Runtime: Java(TM) SE Runtime Environment
JVM: Java HotSpot(TM) 64-Bit Server VM
Default Encoding: UTF-8
Language: en
Country: US
--></g></svg>